<svg width="1081" height="266" viewBox="0 0 1081 266" fill="none" xmlns="http://www.w3.org/2000/svg">
<g clip-path="url(#clip0_774_23349)">
<path d="M0 133.661C5.08641 131.939 10.1234 130.068 15.2691 128.555C17.7284 127.838 20.395 127.45 22.9432 127.53C29.1753 127.709 33.3135 132.327 32.8296 138.587C32.6123 141.335 31.6543 144.032 30.953 146.729C29.0271 154.144 26.9333 161.51 25.1654 168.964C24.3654 172.339 24.8691 172.777 28.1678 172.189C32.6617 171.393 37.1061 170.308 41.5802 169.333C48.3061 167.87 52.9777 170.617 53.3234 177.445C53.6493 183.954 53.1653 190.652 51.9801 197.062C49.2937 211.614 48.4542 226.086 51.3184 240.677C51.9011 243.653 51.2394 246.3 48.5826 248.052C45.9456 249.794 43.2394 249.386 40.7407 247.744C36.7703 245.126 32.9777 242.22 28.9283 239.721C20.9777 234.824 12.3358 232.057 2.93333 232.067C1.96543 232.067 0.987652 232.276 0.019753 232.396C0.019753 228.056 0.019753 223.717 0.019753 219.377C5.44196 219.546 10.8642 219.725 16.3654 219.895C15.1407 218.004 13.6395 215.983 12.4444 213.793C10.9926 211.116 9.58023 208.379 8.55307 205.522C7.67406 203.084 8.49381 200.805 10.8543 199.501C13.2148 198.197 15.5456 198.764 17.2049 200.695C18.7061 202.447 19.9901 204.487 20.8888 206.617C23.1012 211.843 25.1358 217.158 27.032 222.512C27.8024 224.672 29.1654 225.468 31.4765 225.867C29.6888 221.736 27.9407 217.984 26.4592 214.122C25.6 211.872 24.7407 209.444 24.7308 207.095C24.7308 205.662 26.0444 203.741 27.3185 202.895C29.037 201.76 31.0617 202.566 32.2666 204.288C33.1752 205.592 33.8468 207.115 34.3901 208.628C35.1901 210.837 35.7826 213.127 36.4543 215.336C38.1728 204.338 39.8617 193.459 41.6295 182.162C37.4221 183.008 33.8666 183.854 30.2715 184.432C17.4222 186.502 10.6765 179.843 13.2642 167.073C14.8345 159.32 17.4716 151.795 19.6444 144.161C19.9506 143.086 20.3456 142.031 20.7012 140.966C20.5135 140.717 20.316 140.479 20.1284 140.23C13.4222 142.917 6.71604 145.604 0.019753 148.292C0 143.425 0 138.538 0 133.661Z" fill="white" fill-opacity="0.05"/>
<path d="M0 63.671C2.83456 61.0732 5.37283 58.0076 8.57282 55.9872C14.5679 52.195 17.2444 46.7208 19.4469 40.1716C24.1086 26.3168 31.2987 13.6763 40.2962 2.1307C41.3925 0.717356 42.5382 0.110214 44.3456 0.150026C49.6888 0.269464 55.032 0.189839 61.0468 0.189839C51.5456 13.6166 42.8147 26.7946 37.3135 42.1821C38.5086 42.3016 39.4567 42.3812 40.4049 42.4907C49.8271 43.6652 55.9209 51.9661 54.0147 61.332C52.1777 70.3595 46.7061 76.5205 38.2715 79.8448C31.2888 82.6019 24.4148 80.2728 20.1185 73.9028C18.6271 71.6833 17.5901 69.1452 16.1679 66.428C10.2024 71.8326 4.57283 77.5556 0 84.2839C0 77.4163 0 70.5386 0 63.671ZM33.5209 64.5668C33.9654 64.7559 34.4197 64.945 34.8641 65.1341C36.4049 63.4022 38.0542 61.7401 39.4271 59.8788C39.8123 59.3613 39.595 57.5797 39.3283 57.51C37.6888 57.0322 35.9703 56.7436 34.2617 56.6938C33.8172 56.6839 32.9481 57.729 32.958 58.2863C32.9975 60.3765 33.3036 62.4667 33.5209 64.5668Z" fill="white" fill-opacity="0.05"/>
<path d="M645.263 308.786C650.083 308.139 654.053 307.512 658.033 307.104C670.833 305.81 681.253 310.269 689.293 320.402C695.574 328.324 700.048 337.292 703.851 346.578C707.643 355.855 710.794 365.4 714.705 374.616C724.977 398.803 741.144 417.355 766.083 426.831C784.354 433.778 803.129 434.186 821.964 429.379C854.695 421.038 879.327 401.749 895.673 372.138C904.729 355.725 908.917 337.919 905.638 319.048C904.64 313.325 902.833 307.592 900.423 302.307C891.752 283.286 878.774 267.57 862.132 255.149C847.485 244.21 830.922 238.099 812.532 238.139C807.208 238.149 801.737 238.895 796.591 240.299C774.774 246.251 763.347 261.539 759.969 283.406C759.189 288.432 759.248 293.707 759.722 298.793C761.826 321.297 780.325 335.361 803.129 332.525C812.265 331.39 820.7 328.056 828.265 322.751C834.152 318.62 837.885 313.006 838.26 305.611C838.557 299.858 835.584 296.634 829.885 296.096C825.164 295.658 821.786 299.062 822.191 303.83C822.339 305.542 822.339 307.264 822.507 308.975C822.794 311.932 821.204 313.305 818.596 313.813C814.191 314.679 810.547 313.106 807.821 309.742C803.179 304.019 802.142 297.599 804.917 290.672C810.142 277.613 823.969 270.377 838.132 273.283C856.542 277.056 866.507 293.22 862.399 312.937C860.344 322.78 855.811 331.559 848.107 337.879C828.769 353.775 806.715 360.573 781.994 354.621C758.823 349.037 743.12 330.474 739.93 306.417C737.984 291.727 739.86 277.563 745.46 263.888C755.248 240 773.174 226.245 798.112 221.517C820.147 217.347 841.154 221.477 861.45 230.196C893.421 243.932 914.665 268.058 926.547 300.515C934.507 322.263 932.759 344.259 925.46 365.957C917.115 390.741 902.359 410.806 881.105 425.776C846.399 450.221 808.354 459.467 766.685 449.394C743.09 443.691 724.739 429.846 710.962 409.831C703.169 398.504 697.806 386.072 694.063 372.795C691.07 362.205 687.515 351.764 683.732 341.433C682.172 337.173 679.554 333.251 677.036 329.429C673.935 324.721 669.253 322.552 663.673 322.661C655.298 322.83 647.288 324.383 640.137 329.18C636.256 331.788 632.157 331.718 629.115 329.23C625.994 326.682 625.283 322.98 626.952 318.381C627.505 316.858 627.969 315.296 628.335 313.713C631.229 301.232 637.243 290.313 644.927 280.251C647.456 276.936 651.14 276.09 654.191 277.892C657.204 279.673 658.32 283.396 656.69 287.188C655.624 289.666 654.122 291.946 652.858 294.334C650.389 298.953 647.989 303.581 645.263 308.786Z" fill="white" fill-opacity="0.05"/>
<path d="M560.562 344.249C570.349 344.548 579.604 344.558 588.809 345.175C605.974 346.33 622.912 348.977 638.922 355.636C644.087 357.786 649.223 360.503 653.628 363.937C663.258 371.431 664.581 382.071 657.855 392.293C654.329 397.658 649.737 402.027 644.394 405.411C618.221 421.954 590.043 431.877 558.754 431.13C550.083 430.921 541.569 429.518 533.549 426.054C522.27 421.177 514.251 413.284 511.791 400.714C510.537 394.294 510.922 387.804 513.016 381.683C515.377 374.786 518.448 368.137 521.233 361.389C521.609 360.483 522.132 359.647 522.873 358.234C521.253 358.463 520.088 358.602 518.932 358.801C482.705 365.171 448.384 376.876 416.947 396.354C400.473 406.556 384.74 417.793 372.246 432.982C366.883 439.501 362.35 446.508 359.466 454.52C353.263 471.739 359.742 488.341 376.009 496.542C377.194 497.14 379.051 497.319 380.226 496.821C392.997 491.417 406.419 489.257 420.098 488.51C429.125 488.023 438.192 487.923 447.229 487.973C449.747 487.983 452.345 488.908 454.745 489.824C457.945 491.048 460.236 493.377 460.424 497.05C460.611 500.792 458.34 503.092 455.258 504.614C444.868 509.74 433.925 513.045 422.439 514.597C409.52 516.339 396.681 516.319 383.89 513.532C382.666 513.264 381.194 513.473 379.989 513.901C376.779 515.045 373.649 516.419 370.498 517.723C363.565 520.579 358.024 525.158 353.955 531.498C350.646 536.654 347.407 541.859 344.128 547.035C343.535 547.97 342.873 548.856 341.816 550.389C339.742 540.565 342.883 532.682 346.725 524.839C350.557 517.006 355.229 509.979 363.179 505.222C362.103 504.415 361.342 503.848 360.582 503.281C342.923 490.043 337.125 469.062 345.441 448.489C348.868 440.019 353.619 432.315 359.95 425.825C366.35 419.266 372.858 412.667 380.108 407.133C423.703 373.8 472.996 354.491 527.14 347.434C529.569 347.116 531.12 346.121 532.69 344.269C542.547 332.664 552.582 321.218 562.498 309.652C569.184 301.859 576.088 294.215 582.251 286.014C586.557 280.291 590.221 273.97 593.372 267.521C597.322 259.439 595.139 253.576 587.386 249.008C581.836 245.733 575.673 244.39 569.372 244.031C551.772 243.006 535.051 246.47 519.545 255C509.668 260.434 502.132 268.188 497.777 278.897C494.883 286.024 495.426 292.603 499.683 298.992C503.13 304.168 506.527 309.374 509.708 314.718C510.419 315.923 510.814 318.292 510.132 319.118C509.303 320.133 507.061 320.7 505.668 320.392C493.708 317.754 483.831 311.782 477.362 301.033C473.026 293.827 472.651 285.974 474.666 277.952C477.155 268.048 482.419 259.747 489.431 252.491C502.666 238.786 519.229 231.401 537.342 227.031C552.878 223.289 568.502 221.895 584.236 225.857C591.376 227.648 598.014 230.565 603.623 235.462C614.734 245.166 618.27 257.229 614.122 271.402C611.455 280.519 606.744 288.721 601.056 296.196C594.339 305.004 587.169 313.474 580.028 321.935C574.33 328.683 568.374 335.212 562.547 341.841C561.885 342.547 561.312 343.314 560.562 344.249ZM570.29 354.959C564.907 354.959 559.525 354.83 554.152 355.049C552.858 355.098 551.169 355.984 550.428 357.029C547.1 361.737 543.564 366.395 541.036 371.541C538.162 377.403 535.772 383.634 534.122 389.964C532.275 397.081 534.814 401.719 541.243 405.242C543.041 406.228 544.977 407.193 546.952 407.571C552.483 408.636 558.063 410.04 563.643 410.149C588.838 410.627 611.564 402.316 632.838 389.407C635.12 388.023 637.174 386.172 639.1 384.301C645.085 378.488 645.164 375.443 638.201 370.914C632.69 367.331 626.596 364.375 620.394 362.215C604.216 356.571 587.317 355.078 570.29 354.959Z" fill="white" fill-opacity="0.05"/>
<path d="M200.335 141.992C200.533 154.194 199.21 164.008 196.207 173.573C191.289 189.279 184.493 204.099 175.279 217.705C168.247 228.076 160.859 238.209 153.669 248.47C144.819 261.101 135.832 273.632 127.239 286.442C119.22 298.405 113.027 311.354 108.573 325.11C105.145 335.71 104.355 346.519 106.064 357.527C107.368 365.947 111.832 372.447 118.39 377.523C123.052 381.136 128.375 382.191 134.173 380.877C147.259 377.901 160.168 363.14 161.402 349.654C162.38 338.954 154.034 332.913 144.306 337.282C140.355 339.054 137.215 341.771 134.647 345.285C132.948 347.614 132.444 349.963 133.669 352.63C133.965 353.287 134.173 353.984 134.449 354.65C136.365 359.269 135.457 361.11 130.499 362.255C125.797 363.34 121.975 361.538 118.992 358.015C114.647 352.889 113.165 346.877 114.38 340.268C117.817 321.626 140.81 304.775 162.301 313.932C175.466 319.536 184.148 328.932 185.442 343.921C185.876 348.957 185.106 353.944 182.982 358.492C174.35 377.015 161.461 391.407 142.084 398.713C124.82 405.232 109.442 401.51 96.3653 388.431C84.9875 377.055 80.5332 362.872 80.3554 347.096C80.1579 330.166 83.9801 314.111 92.869 299.749C98.9233 289.965 105.916 280.719 113.096 271.721C124.049 257.976 135.812 244.887 146.696 231.092C159.447 214.938 171.15 198.068 178.943 178.729C189.965 151.367 186.301 125.43 171.713 100.596C169.333 96.5456 166.123 92.7534 162.587 89.6879C159.782 87.2593 155.921 86.0052 152.415 84.5023C151.417 84.0743 149.876 84.2933 148.819 84.761C144.938 86.473 141.797 85.8758 139.624 82.7306C137.511 79.6551 137.708 75.2458 140.701 72.8969C142.726 71.3143 145.382 70.1697 147.911 69.692C154.005 68.5474 159.861 69.9209 165.402 72.6282C171.753 75.7435 176.79 80.4314 181.096 85.9853C191.377 99.2329 196.849 114.461 199.209 130.944C199.861 135.323 200.118 139.752 200.335 141.992Z" fill="white" fill-opacity="0.05"/>
<path d="M57.0765 114.352C57.1556 102.149 58.8543 90.2053 62.9432 78.6696C72.0098 53.09 89.8073 36.3886 115.22 28.3465C137.304 21.3494 159.654 21.4888 181.6 29.5309C198.617 35.7715 211.861 46.6006 220.039 63.1825C223.921 71.0554 225.126 79.217 221.807 87.5577C220.691 90.3546 219.081 93.1116 217.086 95.3311C214.133 98.6256 209.491 97.5607 208.069 93.3604C207.318 91.121 207.061 88.5332 207.289 86.1743C207.861 80.3019 205.896 75.4846 202.568 70.7967C192.77 56.9817 179.21 49.2382 162.992 46.3219C141.955 42.5297 121.857 44.8289 103.872 57.7282C95.8518 63.4811 89.758 70.8663 85.9357 79.9734C78.1925 98.4465 75.9506 117.666 79.7925 137.353C81.9061 148.172 86.5185 158.056 94.5579 165.779C102.726 173.623 112.405 178.549 123.921 175.325C139.15 171.055 148.8 160.763 152.474 145.157C153.057 142.678 152.928 139.911 152.563 137.363C151.802 132.028 148.504 128.604 143.526 126.903C135.506 124.165 126.301 126.743 120.978 133.322C119.131 135.602 117.63 138.189 116.168 140.747C115.348 142.171 114.39 142.708 113.225 141.613C111.951 140.409 110.696 139.006 109.946 137.443C108.306 133.989 108.049 130.227 109.155 126.584C113.323 112.779 122.41 105.294 135.259 104.339C160.582 102.458 178.558 124.384 172.099 149.436C170.923 154.005 169.037 158.593 166.568 162.594C156.247 179.356 140.81 188.731 121.669 191.001C103.931 193.101 89.3629 185.487 77.7086 172.468C62.9629 156.045 56.9383 136.258 57.0765 114.352Z" fill="white" fill-opacity="0.05"/>
<path d="M286.093 124.155C285.234 124.892 284.661 125.33 284.157 125.828C277.076 132.884 269.856 139.802 262.962 147.038C247.585 163.192 238.419 182.501 235.19 204.607C234.162 211.634 234.706 218.73 236.493 225.598C237.125 228.017 238.558 230.415 240.207 232.316C241.293 233.56 243.407 233.889 245.076 234.605C245.698 234.874 246.696 234.924 246.883 235.352C247.081 235.82 246.676 236.716 246.291 237.243C243.871 240.458 240.553 241.563 236.75 240.747C230.39 239.393 225.866 235.332 222.538 229.947C216.967 220.94 215.012 210.957 216.197 200.546C219.051 175.534 229.234 153.796 246.933 136.049C256.454 126.504 266.943 117.935 277.106 109.047C278.844 107.524 279.328 106.339 278.577 104.04C275.071 93.2808 272.75 82.2627 271.575 70.9659C269.432 50.3629 277.975 34.3184 293.204 21.9068C309.106 8.94785 333.313 16.7909 340.088 36.2792C341.757 41.0865 341.57 45.9337 340.128 50.6814C335.525 65.8898 328.938 80.0232 317.886 91.6983C312.187 97.7199 306.617 103.861 300.898 109.853C299.713 111.087 299.585 112.072 300.148 113.655C307.624 134.328 318.952 152.651 333.797 168.706C338.409 173.692 343.851 177.922 349.056 182.332C352.898 185.576 356.947 188.582 360.967 191.598C362.607 192.832 364.523 193.698 366.123 194.972C367.022 195.679 368.226 197.032 368.049 197.819C367.831 198.844 366.518 200.098 365.431 200.397C360.76 201.69 356.197 200.844 351.772 199.023C341.066 194.614 331.782 188.104 323.654 179.863C308.335 164.326 295.575 147.008 287.278 126.594C286.982 125.857 286.587 125.161 286.093 124.155ZM292.908 94.3259C295.97 91.34 298.231 89.0308 300.592 86.8411C312.701 75.624 320.869 61.9185 325.935 46.2423C327.515 41.3553 326.607 38.2101 322.686 34.9753C315.93 29.4115 306.33 30.1381 300.454 36.9261C291.634 47.1182 286.686 58.6538 289.066 72.5186C290.301 79.6052 291.565 86.6719 292.908 94.3259Z" fill="white" fill-opacity="0.05"/>
<path d="M547.298 0.199243C546.695 1.42348 546.31 2.29936 545.846 3.13542C540.651 12.5511 533.708 20.3743 524.71 26.2367C510.685 35.3637 496.048 43.1271 479.337 46.0036C478.992 46.0633 478.666 46.2425 478.36 46.3619C476.374 60.3461 474.103 65.4222 469.145 66.2981C469.145 59.9878 469.145 53.7272 469.145 47.2876C467.416 47.2876 466.024 47.2876 465.332 47.2876C463.446 53.9462 461.728 60.356 459.772 66.6862C459.199 68.5375 458.083 70.2793 456.957 71.8917C455.762 73.6136 453.994 74.7582 451.851 73.9122C449.787 73.0961 449.481 71.0756 449.629 69.1148C449.757 67.5024 450.152 65.9099 450.439 64.3174C451.495 58.455 452.542 52.5826 453.619 46.7302C453.895 45.2273 453.352 44.4808 451.93 43.8836C449.382 42.8086 446.942 41.4351 444.444 40.181C436.829 50.383 422.251 95.3612 422.735 107.982C430.676 101.771 439.091 97.2822 448.799 95.5603C458.686 93.8085 468.068 95.6001 477.629 99.5615C477.49 98.4268 477.461 97.6803 477.313 96.9637C476.058 91.0217 476.276 85.0995 477.55 79.2073C478.686 73.9918 482.004 71.7225 487.179 72.6482C492.058 73.5141 496.908 73.3548 501.51 71.613C523.93 63.1429 546.063 53.986 567.09 42.3608C579.209 35.6623 589.431 26.6646 597.826 15.5968C600.552 12.0037 603.07 8.39068 603.307 3.51364C603.485 -0.0396321 604.354 -0.258601 609.846 0.21915C612.562 0.458025 612.117 2.69748 612.167 4.29994C612.335 9.39595 610.211 13.8251 607.485 17.9059C600.384 28.5159 591.712 37.6131 580.868 44.3812C575.693 47.616 570.409 50.7712 564.888 53.3092C543.288 63.2524 521.688 73.2155 499.071 80.7003C496.858 81.4368 494.636 82.2032 492.355 82.6411C490.527 82.9895 489.876 83.8952 490.152 85.6072C490.893 90.1458 491.802 94.6546 492.404 99.2131C492.967 103.483 493.807 107.833 493.471 112.073C492.878 119.508 486.824 122.165 480.424 118.403C476.868 116.313 473.224 114.342 469.471 112.65C459.021 107.952 448.72 108.898 439.031 114.66C433.886 117.726 429.105 121.488 424.463 125.3C417.767 130.794 409.984 128.764 408.226 120.204C407.16 115.019 407.347 109.415 407.851 104.08C409.313 88.7822 413.826 74.1909 419.002 59.7987C422.547 49.945 426.113 40.0914 429.757 30.2677C430.537 28.1676 431.446 26.0376 432.71 24.2162C436.829 18.3239 445.007 17.886 448.928 23.8479C454.715 32.6564 463.061 34.1594 472.256 33.0546C491.179 30.7852 507.397 22.0563 522.132 10.3813C525.016 8.10204 526.972 4.62839 529.411 1.75193C529.935 1.13484 530.695 0.288822 531.367 0.268915C536.562 0.139525 541.727 0.199243 547.298 0.199243Z" fill="white" fill-opacity="0.05"/>
<path d="M1154.5 269.183C1152.85 269.86 1151.88 270.218 1150.94 270.646C1130.5 279.853 1111.09 290.921 1092.7 303.81C1090.93 305.044 1089.13 306.268 1087.23 307.254C1084.94 308.438 1082.67 308.209 1080.86 306.169C1079.22 304.327 1079.16 301.58 1080.99 299.46C1082.32 297.908 1083.89 296.454 1085.62 295.38C1098.52 287.377 1111.4 279.335 1124.46 271.621C1132.5 266.874 1140.76 262.455 1149.14 258.354C1155.57 255.199 1162.29 252.631 1168.98 250.053C1172.21 248.809 1175.42 249.326 1177.81 252.173C1180.16 254.98 1180.15 258.175 1178.64 261.33C1177.68 263.36 1176.34 265.202 1175.22 267.152C1164.83 285.307 1154.45 303.471 1144.08 321.636C1143.6 322.472 1143.28 323.388 1142.54 325.02C1144.26 324.094 1145.29 323.437 1146.4 322.98C1150.45 321.298 1154.42 319.367 1158.61 318.142C1162.28 317.067 1165.81 318.103 1168.18 321.427C1170.54 324.741 1170.29 328.344 1168.34 331.669C1164.78 337.73 1160.94 343.632 1157.27 349.634C1153.04 356.562 1148.87 363.519 1144.68 370.476C1144.2 371.282 1143.82 372.148 1143.05 373.651C1146.49 372.019 1149.14 370.546 1151.95 369.481C1154.86 368.376 1157.87 367.172 1160.93 366.883C1166.96 366.306 1170.87 371.451 1169.25 377.344C1168.95 378.468 1168.48 379.573 1167.93 380.598C1163.3 389.268 1158.76 398.006 1153.92 406.566C1147.88 417.256 1142.12 428.075 1137.67 439.561C1136.6 442.318 1135.18 444.985 1133.56 447.464C1131.44 450.698 1128.32 451.843 1125.22 451.027C1122.14 450.221 1119.55 447.324 1119.63 443.552C1119.7 440.098 1120.07 436.376 1121.43 433.27C1125.79 423.377 1130.54 413.653 1135.4 403.998C1137.85 399.111 1140.86 394.503 1143.21 389.258C1141.41 390.462 1139.58 391.636 1137.82 392.89C1136.22 394.035 1134.71 395.349 1133.06 396.434C1130.24 398.305 1127.21 398.753 1124.17 397.001C1121.01 395.17 1119.82 392.124 1120.28 388.68C1120.73 385.296 1121.44 381.882 1122.56 378.677C1126.65 366.903 1133 356.293 1139.74 345.922C1140.36 344.966 1140.98 344.011 1141.59 343.055C1141.43 342.876 1141.28 342.697 1141.12 342.528C1139.05 343.981 1136.92 345.354 1134.9 346.887C1129.96 350.639 1126.08 351.227 1122.66 348.639C1119.23 346.031 1118.63 341.741 1121.07 336.028C1130.4 314.161 1141.13 293.011 1152.78 272.318C1153.25 271.502 1153.7 270.656 1154.5 269.183Z" fill="white" fill-opacity="0.05"/>
<path d="M1076.67 225.12C1082.05 223.796 1087.2 222.254 1092.44 221.328C1097.58 220.422 1102.65 221.408 1107.42 223.578C1114.45 226.782 1118.34 233.61 1117.63 241.354C1116.92 249.167 1113.43 255.258 1106.61 259.26C1100.12 263.052 1093.22 265.849 1085.86 267.332C1076.35 269.243 1068.37 265.59 1063.45 257.219C1063.23 256.831 1062.99 256.453 1062.28 255.288C1061.81 256.164 1061.54 256.831 1061.12 257.388C1052.12 269.432 1046.74 282.759 1046.87 298.047C1046.9 301.481 1046.78 304.925 1046.94 308.348C1047.08 311.255 1047.52 314.101 1050.24 315.983C1051.72 317.008 1051.55 318.113 1050.05 319.168C1045.14 322.651 1039.36 321.616 1035.68 316.44C1032.54 312.021 1031.48 306.895 1031.14 301.6C1029.4 275.523 1039.97 254.741 1058.55 237.482C1060.02 236.109 1060.86 234.745 1061.21 232.744C1062.27 226.792 1063.58 220.88 1064.78 214.948C1064.97 214.032 1065.08 213.097 1064.71 211.863C1063.51 212.908 1062.22 213.863 1061.15 215.028C1058.36 218.083 1055.73 221.298 1052.91 224.334C1041.16 236.945 1026.96 245.325 1010.13 248.888C1007.14 249.525 1003.85 249.386 1000.79 248.948C993.005 247.853 988.354 243.026 986.319 235.511C986.062 234.556 985.865 233.59 985.559 232.287C984.749 232.645 983.998 232.854 983.396 233.272C979.208 236.218 975.05 239.214 970.882 242.19C968.176 244.121 965.608 246.301 962.744 247.933C955.85 251.874 949.687 250.282 945.223 243.713C944.828 243.135 944.423 242.558 943.722 241.553C941.233 245.524 938.902 249.227 936.61 252.949C936.393 253.298 936.265 253.865 936.393 254.233C937.114 256.343 936.146 257.577 934.339 258.264C932.403 259.001 930.26 258.782 929.302 256.95C928.373 255.169 927.376 252.501 928.048 250.939C931.208 243.603 934.447 236.208 938.615 229.42C941.568 224.613 947.652 225.14 951.159 229.768C952.877 232.048 954.21 234.616 955.998 237.502C958.694 235.432 961.164 233.401 963.771 231.57C969.855 227.28 975.968 223.02 982.161 218.9C983.781 217.825 985.717 217.158 987.583 216.561C992.956 214.849 997.351 217.337 998.605 222.881C999.139 225.24 999.149 227.718 999.435 230.147C999.998 234.904 1001.58 236.298 1006.27 236.198C1007.08 236.178 1007.91 236.188 1008.68 235.999C1022.2 232.695 1034.44 227.071 1043.74 216.202C1047.43 211.893 1050.77 207.215 1054.88 203.353C1057.94 200.476 1061.73 197.918 1065.64 196.505C1073.52 193.658 1079.4 198.058 1079.23 206.488C1079.13 211.594 1078.01 216.69 1077.32 221.786C1077.16 222.96 1076.88 224.095 1076.67 225.12ZM1083.08 254.313C1089.13 253.377 1095.61 251.426 1101.38 247.575C1102.42 246.888 1103.25 245.584 1103.71 244.39C1105.54 239.682 1104.22 237.303 1099.29 236.566C1097.2 236.258 1094.98 236.278 1092.9 236.606C1086.58 237.611 1081.14 240.826 1075.78 244.111C1075.27 244.419 1074.8 245.206 1074.75 245.803C1074.38 250.172 1078.08 254.273 1083.08 254.313Z" fill="white" fill-opacity="0.05"/>
<path d="M544.325 157.19C544.384 156.523 544.493 156.165 544.433 155.836C543.327 149.546 547.041 143.425 555.831 142.29C565.51 141.036 574.695 143.305 583.228 147.486C589.451 150.531 595.051 154.851 600.937 158.593C600.818 158.792 600.7 158.981 600.581 159.181C600.739 159.131 600.976 159.121 601.046 159.011C606.567 150.322 610.754 141.086 612.028 130.734C613.579 118.094 607.949 110.002 595.683 107.046C585.283 104.538 574.981 106.001 564.72 107.912C561.204 108.569 557.727 109.524 554.27 110.49C552.206 111.067 550.241 111.515 549.026 113.993C547.722 116.651 540.275 116.133 537.678 113.575C535.258 111.187 535.584 107.305 538.586 104.787C540.019 103.582 541.619 102.497 543.307 101.691C560.354 93.5097 578.26 90.2053 596.947 93.4998C616.808 97.0033 626.566 111.196 623.495 131.381C621.332 145.644 615.979 158.663 607.781 170.487C607.525 170.856 607.258 171.224 606.981 171.572C603.821 175.504 599.673 175.544 596.591 171.503C588.206 160.504 576.69 156.692 563.485 156.662C562.873 156.662 562.27 156.842 560.888 157.061C562.972 160.942 564.868 164.535 566.823 168.089C567.337 169.034 568.167 169.811 568.631 170.766C569.994 173.603 569.865 176.409 567.89 178.918C565.905 181.426 563.199 182.262 560.177 181.416C558.656 180.988 557.243 180.102 555.841 179.316C540.927 171.055 524.927 167.89 508.295 171.164C494.211 173.931 483.327 182.69 474.458 193.817C470.745 198.476 471.071 202.317 474.636 207.185C475.643 208.568 476.848 209.812 477.747 211.265C478.735 212.848 478.152 214.022 476.266 213.903C464.562 213.137 454.577 206.11 456.858 191.887C458.162 183.755 462.567 177.325 468.601 172.01C488.848 154.174 511.999 148.64 538.033 155.607C540.078 156.155 542.142 156.643 544.325 157.19Z" fill="white" fill-opacity="0.05"/>
<path d="M919.228 0.189812C908.403 24.3262 906.3 50.1347 900.917 75.1569C899.09 83.627 897.104 92.0772 894.912 100.458C894.191 103.195 892.946 105.952 891.337 108.271C887.228 114.173 879.317 114.372 875.524 108.291C873.016 104.27 871.159 99.4824 870.359 94.7944C868.868 86.0954 868.354 77.2172 867.435 68.4186C867.347 67.5427 867.327 66.6668 867.268 65.791C867.04 65.6118 866.813 65.4426 866.576 65.2635C866.24 65.8507 865.944 66.4578 865.569 67.0152C863.485 70.0708 861.411 73.1364 859.258 76.1323C858.211 77.5954 857.124 79.0585 855.831 80.2927C853.352 82.6416 850.389 83.4578 847.139 82.134C843.87 80.8003 842.191 78.0731 842.26 74.6791C842.339 71.086 842.912 67.493 843.524 63.9397C844.413 58.774 845.539 53.6581 846.556 48.5223C846.695 47.8455 846.784 47.1587 846.951 46.1037C840.887 48.7412 835.742 52.0755 831.258 56.4649C829.776 57.9081 828.324 59.411 826.685 60.6551C824.127 62.5861 821.233 63.024 818.329 61.5012C815.327 59.9186 813.895 57.2014 814.201 53.887C814.398 51.7869 814.902 49.4977 815.959 47.7161C825.174 32.219 834.547 16.8016 843.919 1.39414C844.265 0.81686 845.144 0.239577 845.776 0.229624C852.492 0.149999 859.198 0.179859 866.122 0.179859C866.517 2.92693 866.556 5.60432 867.337 8.04284C868.65 12.1236 870.448 16.0452 872.058 20.0264C872.897 22.0967 874.102 24.0774 874.537 26.2272C875.021 28.616 873.964 29.3724 871.9 28.2477C863.593 23.7091 856.848 17.777 854.932 7.81392C854.833 7.2864 854.695 6.77879 854.389 5.45502C848.048 16.6224 842.053 27.2026 836.048 37.7828C836.216 37.952 836.374 38.1212 836.542 38.2904C839.129 37.4245 841.707 36.5088 844.324 35.7126C846.724 34.976 849.134 34.2594 851.593 33.7518C856.571 32.7266 859.712 35.0955 859.88 40.2313C859.979 43.277 859.505 46.3525 859.228 49.4081C859.06 51.1897 858.774 52.9614 858.477 55.2207C860.887 53.1206 862.872 51.2295 865.035 49.5574C873.44 43.048 879.455 45.1482 881.747 55.579C882.902 60.8642 883.445 66.2787 884.275 71.6335C884.443 72.7482 884.611 73.863 885.322 75.0076C886.547 69.4736 887.613 63.8999 889.045 58.4256C892.7 44.4614 896.265 30.4573 900.403 16.6324C901.934 11.5165 904.986 6.86837 907.307 1.98138C907.979 0.568031 908.956 0.0803272 910.507 0.149999C913.262 0.27939 916.048 0.189812 919.228 0.189812Z" fill="white" fill-opacity="0.05"/>
<path d="M448.661 253.238C448.266 255.298 447.891 259.299 446.715 263.042C443.17 274.309 439.239 285.456 435.594 296.703C433.066 304.507 430.617 312.35 428.394 320.242C426.498 327.001 423.752 328.971 416.918 328.086C408.74 327.03 400.552 325.766 392.335 325.269C385.659 324.871 378.933 325.458 372.227 325.637C370.439 325.687 368.641 325.965 366.854 325.926C359.357 325.766 355.417 320.84 357.185 313.494C359.367 304.457 361.925 295.519 364.167 286.491C367.209 274.239 370.241 261.977 373.027 249.655C374.834 241.652 379.446 237.343 387.565 237.85C394.528 238.288 401.422 239.722 408.365 240.468C419.328 241.662 430.32 242.588 441.283 243.753C447.367 244.409 448.128 245.335 448.661 253.238ZM399.92 314.768C399.417 313.823 398.933 313.006 398.548 312.141C396.661 307.95 394.469 303.87 393.036 299.52C391.782 295.708 393.846 291.966 397.155 290.492C400.493 289.009 404.167 290.244 406.508 293.668C406.962 294.334 407.436 295.021 407.743 295.768C410.073 301.431 412.375 307.104 414.646 312.797C415.219 314.221 415.604 315.724 416.167 317.456C416.977 312.21 417.777 307.433 418.399 302.635C418.508 301.799 418.054 300.704 417.52 299.988C411.13 291.438 408.641 281.306 406.103 271.243C405.066 267.142 407.288 263.42 410.765 261.788C414.291 260.135 418.705 260.942 421.165 264.375C422.903 266.804 423.871 269.8 425.076 272.597C425.57 273.751 425.747 275.035 426.073 276.26C426.271 276.26 426.478 276.25 426.676 276.25C429.046 268.048 431.426 259.857 433.925 251.217C418.35 252.063 403.189 252.89 388.009 253.716C384.997 273.622 376.553 292.244 372.513 311.981C381.659 312.907 390.627 313.813 399.92 314.768Z" fill="white" fill-opacity="0.05"/>
<path d="M765.115 117.636C772.166 117.636 779.337 117.218 786.428 117.746C794.586 118.343 802.112 121.478 809.055 125.808C810.991 127.012 812.68 127.41 814.813 126.514C816.028 126.007 817.43 125.718 818.734 125.748C822.448 125.818 824.285 129.162 822.122 132.178C820.739 134.109 818.922 135.89 816.937 137.184C800.147 148.113 781.964 149.088 763.09 144.46C756.295 142.798 749.51 141.056 742.794 139.125C739.149 138.08 735.811 136.269 731.85 135.97C728.403 135.711 726.873 132.666 725.984 129.61C724.483 124.444 724.878 119.219 726.073 114.053C727.604 107.454 730.418 101.423 734.428 95.9882C741.599 86.254 750.586 78.61 761.124 72.7874C766.408 69.8711 772.058 68.7166 778.013 69.5327C781.411 70.0005 784.779 70.7271 788.107 71.5433C790.784 72.2002 792.423 74.9671 791.84 77.9133C791.514 79.5655 790.833 81.1978 790.043 82.6908C783.623 94.8933 775.712 106.051 766.379 116.173C765.855 116.76 765.352 117.368 765.115 117.636ZM738.882 126.206C756.996 114.212 768.719 97.3717 779.189 79.4262C762.418 83.8852 739.702 110.271 738.882 126.206ZM798.458 131.989C790.24 127.191 767.416 126.614 759.208 130.934C772.255 133.79 785.115 136.169 798.458 131.989Z" fill="white" fill-opacity="0.05"/>
<path d="M696.196 188.632C695.357 189.797 694.863 190.653 694.201 191.359C683.683 202.666 671.021 210.668 656.562 215.784C653.836 216.75 650.794 217.267 647.91 217.237C644.473 217.207 643.08 215.048 643.475 211.594C643.515 211.236 643.712 210.837 643.623 210.529C641.342 202.994 645.273 197.202 649.135 191.558C651.1 188.692 653.589 186.094 656.177 183.765C665.737 175.175 676.364 168.069 687.91 162.525C691.851 160.634 696.414 159.479 700.769 159.181C707.258 158.743 710.675 161.997 711.771 168.467C712.088 170.358 712.947 171.095 714.596 172.06C716.621 173.244 718.675 175.364 719.436 177.534C721.826 184.312 724.216 191.19 725.49 198.237C727.831 211.156 728.897 224.234 726.497 237.343C725.638 242.041 724.038 246.41 720.729 249.973C719.05 251.775 717.154 253.089 714.547 252.083C712.038 251.118 711.554 248.988 711.455 246.589C711.426 245.853 711.199 244.927 710.705 244.449C700.937 235.004 696.848 223.13 696.256 209.862C695.939 203.104 696.196 196.326 696.196 188.632ZM713.954 234.257C717.421 223.787 714.241 189.797 709.352 183.765C704.71 199.362 706.902 224.005 713.954 234.257ZM659.989 202.089C671.386 195.689 680.907 187.985 689.451 178.141C681.174 181.555 664.453 195.121 659.989 202.089Z" fill="white" fill-opacity="0.05"/>
<path d="M1065.03 45.2967C1067.42 45.2967 1069.49 45.1076 1071.5 45.3365C1077.21 45.9735 1080.54 50.3728 1079.69 55.9267C1079.02 60.326 1074.32 65.8898 1070.54 66.7557C1065.37 67.9401 1060.88 66.0291 1057.58 61.2815C1057.17 60.6942 1056.68 60.1568 1056.2 59.6292C1051.04 54.1252 1050.07 48.213 1053.55 41.4847C1056.45 35.8711 1060.63 31.2628 1065.8 27.6398C1070.36 24.4349 1075.46 24.2856 1080.51 25.9379C1094.69 30.586 1106.56 40.5192 1108.14 57.768C1108.77 64.7153 1109.63 71.7024 1107.72 78.5203C1106.54 82.7404 1105.22 87.1596 1102.87 90.7726C1095.33 102.368 1086.2 112.56 1073.79 119.119C1065.92 123.27 1058.01 127.38 1049.85 130.884C1041.17 134.616 1036.63 140.767 1036.48 150.223C1036.42 153.746 1036.54 157.26 1036.5 160.783C1036.47 163.032 1036.65 165.371 1036.07 167.481C1035.7 168.775 1034.19 170.388 1032.97 170.627C1031.71 170.866 1029.98 169.83 1028.84 168.885C1027.95 168.158 1027.44 166.775 1027.1 165.59C1024.39 156.493 1023.79 147.287 1026.2 138.03C1028.31 129.908 1033.46 124.235 1040.84 120.582C1047.76 117.148 1054.64 113.615 1061.72 110.53C1072.38 105.882 1080.78 98.4266 1088.18 89.6579C1093.38 83.4869 1096 76.3306 1095.88 68.2188C1095.84 65.6011 1095.56 62.9835 1095.43 60.3658C1094.84 48.0537 1086.05 41.7235 1075.56 38.23C1073.52 37.5432 1071.65 38.011 1070.09 39.5339C1068.94 40.6685 1067.8 41.8231 1066.71 43.0274C1066.12 43.6644 1065.66 44.4308 1065.03 45.2967Z" fill="white" fill-opacity="0.05"/>
<path d="M975.376 191.767C974.329 192.971 973.45 193.947 972.611 194.942C966.378 202.377 958.309 206.219 948.808 207.115C943.751 207.593 939.03 206.966 936.245 201.561C928.304 213.485 920.137 224.861 917.638 239.134C917.499 239.94 916.374 240.557 915.702 241.274C914.991 240.587 913.667 239.91 913.658 239.214C913.618 234.745 913.411 230.186 914.171 225.817C914.872 221.776 916.413 217.805 918.112 214.052C921.193 207.234 924.482 200.506 928.067 193.947C929.588 191.15 931.929 188.751 934.141 186.412C935.741 184.71 937.964 184.392 940.127 185.407C942.201 186.392 942.981 188.214 943.03 190.493C943.208 198.675 946.062 200.854 953.964 198.694C959.346 197.221 963.899 194.454 967.633 190.065C970.527 186.661 974.033 183.775 977.42 180.829C979.208 179.266 981.42 177.992 983.741 179.793C985.973 181.525 984.986 183.815 984.393 186.014C983.88 187.905 983.435 189.856 983.248 191.807C983.02 194.086 984.443 195.062 986.546 195.141C989.49 195.251 992.018 194.036 993.401 191.578C996.936 185.308 1000.7 179.077 1003.35 172.418C1005.69 166.536 1004.88 160.275 1000.2 155.488C995.929 151.128 991.504 146.799 986.586 143.265C979.356 138.08 968.946 142.867 967.109 151.795C966.853 153.029 966.734 154.303 966.714 155.558C966.606 161.49 968.364 163.182 974.27 162.923C974.714 162.903 975.169 162.863 975.613 162.883C977.588 162.943 979.139 163.679 979.653 165.76C980.166 167.82 979.277 169.522 977.45 170.189C974.102 171.403 970.665 172.687 967.169 173.135C962.724 173.702 959.188 171.473 956.759 167.68C952.215 160.594 951.198 152.691 953.944 145.037C962.497 121.229 986.537 120.513 998.783 131.182C1005.93 137.413 1012.38 144.022 1015.96 153.049C1019.74 162.614 1018.55 171.682 1013.22 180.231C1010.42 184.74 1007.21 189.01 1004.07 193.29C1000.71 197.868 996.788 201.75 991.06 203.273C983.425 205.303 976.66 200.735 975.722 192.872C975.692 192.633 975.583 192.404 975.376 191.767Z" fill="white" fill-opacity="0.05"/>
<path d="M666.379 25.689C663.663 31.2727 661.233 36.2393 658.814 41.2159C665.055 40.1111 671.465 38.8769 677.905 37.8716C696.107 35.0151 714.428 33.4823 732.848 33.1837C736.966 33.114 741.095 33.4723 745.213 33.6913C746.191 33.7411 747.169 33.9501 748.117 34.1989C750.547 34.826 752.552 36.1099 752.68 38.857C752.799 41.5443 751.04 43.2961 748.69 44.0625C746.152 44.8985 743.485 45.6052 740.838 45.7844C727.949 46.6802 715.021 47.1081 702.152 48.2428C687.317 49.5467 672.542 51.4776 657.717 52.9904C654.349 53.3388 650.922 53.0601 647.525 53.1099C646.823 53.1198 646.112 53.1796 645.441 53.3687C641.698 54.3938 638.902 51.9752 640.167 48.2727C641.273 45.008 643.159 41.9524 645.016 39.0063C647.801 34.5871 650.893 30.367 653.757 26.0075C654.32 25.1515 654.754 23.987 654.705 22.9917C654.567 20.1948 656.107 18.9806 658.478 18.6222C662.023 18.0947 665.589 17.5971 669.164 17.3681C689.757 16.0444 710.349 14.7007 730.962 13.6158C736.127 13.3471 741.352 13.9542 746.537 14.203C747.416 14.2429 748.305 14.5116 749.154 14.7604C751.278 15.3875 752.571 16.8605 752.64 19.0701C752.719 21.4191 751.445 23.1808 749.203 23.6585C745.974 24.3553 742.675 24.9923 739.386 25.1017C730.063 25.4103 720.729 25.5098 711.396 25.5695C696.68 25.6492 681.964 25.6193 667.248 25.6492C666.735 25.6392 666.201 25.6989 666.379 25.689Z" fill="white" fill-opacity="0.05"/>
<path d="M288.158 244.071C284.958 246.519 281.985 248.978 278.814 251.148C273.639 254.691 268.345 254.333 263.15 251.088C259.15 248.58 256.405 244.907 254.182 240.826C249.906 232.953 247.822 224.483 248.316 215.535C249.106 201.282 253.076 187.995 261.027 176.051C261.728 175.006 262.469 173.981 263.269 173.006C265.175 170.667 267.585 169.422 270.617 170.189C273.758 170.975 275.713 173.264 275.891 176.34C276.118 180.271 275.891 184.272 275.397 188.184C274.321 196.784 272.79 205.333 271.763 213.933C270.755 222.373 272.444 230.455 275.703 238.278C276.711 240.687 278.005 241.483 280.404 240.458C281.619 239.94 282.893 239.582 284.316 239.084C280.543 230.853 280.859 222.542 282.686 214.212C283.16 212.052 284.079 209.892 285.234 208.011C286.913 205.274 289.53 203.92 292.819 204.587C296.148 205.274 297.916 207.662 298.39 210.808C299.012 214.908 299.288 219.059 299.604 223.199C299.851 226.534 299.822 229.888 300.098 233.212C300.404 236.805 301.945 238.149 305.471 238.248C308.562 238.338 308.997 239.065 307.604 241.782C304.987 246.858 299.506 249.177 294.153 247.196C292.009 246.42 290.054 245.086 288.158 244.071Z" fill="white" fill-opacity="0.05"/>
<path d="M1144.18 74.7283C1145.41 74.8377 1146.45 74.8975 1147.46 75.0368C1150.98 75.5046 1153.53 77.6843 1154.21 80.7599C1154.88 83.7856 1153.56 87.1498 1150.27 88.6328C1141.9 92.405 1136.52 92.6738 1131.68 85.7962C1127.61 80.0134 1128.97 71.1153 1134.94 66.5766C1141.64 61.4806 1149.27 58.6738 1157.34 62.5357C1166.04 66.6961 1170.72 74.4297 1171.09 84.0145C1171.58 97.0133 1166.78 108.041 1156.75 116.521C1148.8 123.24 1139.75 127.808 1129.9 131.063C1116.24 135.562 1102.13 137.503 1088 139.483C1082.84 140.21 1077.74 141.205 1072.6 142.051C1064.13 143.445 1058.22 149.078 1052.33 154.662C1051.76 155.209 1051.86 156.434 1051.56 157.319C1051.31 158.096 1051.12 159.29 1050.59 159.489C1049.94 159.738 1048.46 159.37 1048.25 158.872C1047.45 156.971 1046.32 154.801 1046.62 152.96C1047.02 150.492 1048.29 147.954 1049.82 145.923C1055.22 138.707 1062.04 133.492 1071.15 131.889C1081.49 130.068 1091.84 128.286 1102.18 126.455C1113.54 124.434 1124.61 121.239 1135.01 116.253C1140.37 113.685 1145.35 110.092 1150.06 106.389C1156.5 101.323 1159.23 94.0473 1160.01 86.035C1160.53 80.6305 1157.73 76.6691 1153.77 73.5239C1151.29 71.5433 1147.32 72.1703 1144.18 74.7283Z" fill="white" fill-opacity="0.05"/>
<path d="M396.177 0.189792C400.641 0.189792 404.947 0.0803073 409.234 0.289323C410.054 0.329136 411.15 1.49365 411.545 2.38944C415.91 12.2331 417.076 22.5545 415.229 33.1247C412.562 48.3232 404.138 59.3314 390.449 66.1592C384.849 68.9461 378.873 70.021 372.661 68.6276C362.557 66.3583 357.106 56.8829 360.078 46.88C362.794 37.733 372.957 29.5615 382.399 28.9444C389.698 28.4667 395.061 32.3185 396.997 39.445C397.155 40.0123 397.362 40.5697 397.649 41.4257C401.846 37.0164 403.604 31.9304 403.634 26.2571C403.673 18.2348 401.649 10.7202 397.55 3.80278C397.096 3.02644 396.7 2.22023 396.315 1.40408C396.217 1.17515 396.256 0.876559 396.177 0.189792Z" fill="white" fill-opacity="0.05"/>
<path d="M955.514 105.145C957.085 107.166 958.497 108.897 959.82 110.709C960.719 111.943 961.618 113.207 962.27 114.571C963.317 116.76 963.248 119 961.687 120.961C960.146 122.901 957.914 123.708 955.662 123.001C953.045 122.195 950.606 120.821 948.117 119.607C947.248 119.179 946.487 118.532 945.401 117.796C944.245 119.816 943.337 121.876 941.993 123.608C939.988 126.216 937.904 128.863 935.435 130.983C933.193 132.904 930.29 133.123 927.633 131.441C925.085 129.839 924.087 127.281 924.551 124.424C925.016 121.618 925.983 118.89 926.754 116.024C925.381 116.173 923.9 116.462 922.408 116.482C919.149 116.522 916.828 114.72 916.285 111.903C915.761 109.216 917.104 106.688 920.038 105.454C923.337 104.07 926.724 102.935 930.566 101.502C928.67 99.2727 927.02 97.3219 925.351 95.3811C924.472 94.3559 923.435 93.4402 922.724 92.3155C920.541 88.8617 920.522 85.3085 922.734 81.8647C924.788 78.6697 928.729 77.1568 932.65 77.9332C936.176 78.6399 938.803 80.7599 941.055 83.4273C942.141 84.7113 943.129 86.0848 944.295 87.5778C945.786 85.7464 947.06 84.0046 948.532 82.4519C949.756 81.158 951.09 79.8641 952.601 78.9783C954.932 77.6147 957.46 77.6445 959.682 79.3664C961.895 81.0784 962.606 83.4572 961.885 86.1346C961.42 87.8565 960.67 89.4987 960.048 91.1709C965.598 94.744 965.509 98.9244 959.801 102.607C958.546 103.453 957.203 104.17 955.514 105.145Z" fill="white" fill-opacity="0.05"/>
<path d="M200.968 328.603C199.891 322.651 200.75 316.799 202.182 311.006C205.116 299.142 211.259 288.85 217.856 278.787C218.251 278.18 218.696 277.613 219.091 277.006C219.18 276.867 219.18 276.667 219.269 276.279C218.617 275.821 217.916 275.304 217.185 274.826C208.711 269.272 202.321 261.797 197.649 252.84C196.464 250.56 195.674 247.963 195.219 245.425C194.479 241.254 196.829 237.532 200.454 236.437C204.158 235.322 207.417 237.323 209.58 241.264C212.602 246.778 215.743 252.252 219.377 257.358C221.244 259.986 224.177 261.917 226.824 263.898C229.066 265.57 231.506 265.958 234.409 264.883C239.456 263.012 244.454 265.381 246.212 269.979C247.96 274.547 245.935 279.255 241.037 281.594C235.042 284.451 230.242 288.83 226.242 293.956C218.005 304.536 209.135 314.688 203.18 326.901C202.824 327.637 202.222 328.265 201.728 328.941C201.481 328.832 201.224 328.712 200.968 328.603Z" fill="white" fill-opacity="0.05"/>
<path d="M1164.17 180.878C1160.79 177.683 1159.74 174.001 1160.41 169.791C1161.16 165.152 1164.65 161.878 1169.3 161.938C1171.75 161.967 1174.33 162.445 1176.62 163.341C1180.51 164.854 1182.53 168.079 1182.37 172.279C1182.09 179.823 1179.11 185.964 1172.36 189.747C1164.21 194.325 1155.44 195.758 1146.34 193.638C1135.72 191.17 1126.06 186.8 1117.77 179.306C1114.19 176.071 1109.52 174.011 1105.21 171.682C1102.94 170.457 1100.29 169.97 1097.95 168.835C1089.6 164.774 1081.17 165.61 1072.82 168.527C1068.48 170.039 1064.6 172.418 1062.6 177.036C1061.61 179.306 1058.55 180.44 1056.7 179.575C1054.6 178.579 1053.83 175.862 1055.27 173.195C1058.63 166.994 1063.2 162.047 1070.17 159.887C1079.97 156.851 1089.53 156.633 1099.38 160.474C1109.48 164.426 1118.97 169.064 1127.65 175.762C1137.27 183.187 1148.35 185.905 1160.41 182.501C1161.27 182.262 1162.1 181.913 1162.94 181.575C1163.27 181.456 1163.54 181.237 1164.17 180.878Z" fill="white" fill-opacity="0.05"/>
<path d="M684.72 112.69C683.416 106.071 682.073 99.7406 680.947 93.3606C680.265 89.5485 679.821 85.6768 679.465 81.8149C679.297 80.0333 679.406 78.182 679.702 76.4203C680.562 71.394 684.186 67.8308 688.729 67.3132C693.441 66.7857 697.865 69.4631 699.574 74.4098C700.502 77.0972 701.016 80.0333 701.105 82.8799C701.51 94.7441 702.932 106.449 705.796 117.975C706.29 119.955 706.557 122.105 706.398 124.136C705.865 130.824 699.139 134.537 693.391 131.173C689.816 129.082 686.082 128.386 682.092 128.296C680.67 128.266 679.208 128.187 677.836 127.858C673.855 126.923 671.396 123.787 671.613 120.154C671.831 116.492 674.596 113.575 678.566 113.048C680.571 112.799 682.606 112.809 684.72 112.69Z" fill="white" fill-opacity="0.05"/>
<path d="M395.861 189.339C396.078 183.735 398.616 178.569 401.649 173.613C404.75 168.547 408.661 164.157 413.816 161.201C419.397 157.996 425.323 158.783 430.784 161.35C435.031 163.351 436.503 167.74 435.92 172.179C434.132 185.805 427.347 196.316 414.992 202.377C405.086 207.224 395.683 200.725 395.861 189.339Z" fill="white" fill-opacity="0.05"/>
<path d="M270.35 0.348389C269.481 4.72777 267.387 8.18151 264.553 11.1276C256.77 19.2295 247.476 24.6141 236.237 25.9578C232.997 26.346 229.55 26.1569 226.36 25.4701C214.785 22.9719 209.096 12.6803 212.296 0.348389C231.535 0.348389 250.795 0.348389 270.35 0.348389Z" fill="white" fill-opacity="0.05"/>
<path d="M755.89 183.128C755.89 187.527 755.989 191.3 755.85 195.062C755.762 197.48 755.594 199.959 754.991 202.278C754.201 205.314 751.673 207.016 748.828 206.986C745.984 206.956 743.347 205.214 742.774 202.148C741.312 194.355 739.604 186.542 739.07 178.659C738.418 169.134 746.191 162.465 755.603 163.739C758.408 164.117 761.263 164.914 763.831 166.088C769.944 168.885 775.92 171.99 781.915 175.036C782.863 175.514 783.742 176.201 784.502 176.947C788.196 180.56 787.347 185.517 782.497 187.318C780.384 188.105 777.875 188.513 775.673 188.184C770.833 187.448 766.063 186.184 761.292 185.039C759.762 184.661 758.29 183.984 755.89 183.128Z" fill="white" fill-opacity="0.05"/>
<path d="M65.7283 224.553C66.6468 216.023 67.4468 207.473 68.5233 198.963C69.1357 194.076 75.2887 190.334 80.0789 192.215C83.0714 193.39 86.0344 195.33 88.2566 197.649C92.9085 202.527 97.1949 207.772 101.373 213.067C104.523 217.068 102.617 221.388 97.9455 222.97C90.6764 225.439 83.5455 228.345 76.464 231.321C73.8665 232.416 71.4863 233.421 68.8295 231.858C66.5777 230.545 65.5604 228.066 65.7283 224.553Z" fill="white" fill-opacity="0.05"/>
<path d="M861.697 187.975C858.063 189.617 855.396 191.976 854.24 195.4C852.927 199.282 852.216 203.382 851.386 207.423C851.021 209.175 851.189 211.046 850.803 212.788C849.924 216.799 846.033 218.302 843.05 215.505C841.411 213.973 840.127 211.534 839.692 209.305C836.729 193.887 848.482 176.768 863.732 173.941C873.964 172.04 882.714 181.436 879.356 190.792C877.579 195.758 873.756 198.476 868.749 199.272C863.564 200.108 859.811 195.38 861.144 190.025C861.282 189.438 861.45 188.861 861.697 187.975Z" fill="white" fill-opacity="0.05"/>
<path d="M353.017 108.529C352.641 113.277 352.612 116.92 351.999 120.463C351.249 124.812 350.063 129.092 348.938 133.372C348.809 133.86 347.822 134.517 347.328 134.447C345.165 134.148 342.715 134.148 340.967 133.064C335.713 129.809 330.686 126.186 325.688 122.523C323.278 120.752 322.923 117.855 324.503 115.267C325.244 114.053 326.202 112.968 327.071 111.834C331.278 106.359 335.496 100.895 339.683 95.4108C340.503 94.3458 340.967 92.7931 342.004 92.1661C343.318 91.3698 345.362 90.5238 346.547 91.0215C349.422 92.2258 352.088 94.0871 352.325 97.7996C352.572 101.751 352.829 105.702 353.017 108.529Z" fill="white" fill-opacity="0.05"/>
<path d="M699.129 254.352C698.655 262.464 697.885 269.899 695.209 277.006C691.683 286.372 685.016 292.055 675.307 294.135C673.154 294.593 671.1 294.394 669.846 292.314C668.631 290.293 669.263 288.263 670.942 286.979C679.821 280.201 681.865 270.467 682.725 260.145C683.021 256.642 683.327 253.118 683.92 249.655C684.779 244.598 687.416 241.851 691.07 241.782C694.813 241.702 697.668 244.588 698.636 249.575C698.971 251.337 699.011 253.158 699.129 254.352Z" fill="white" fill-opacity="0.05"/>
<path d="M957.094 24.6839C958.043 24.873 959.811 25.1516 961.539 25.6095C966.388 26.9034 971.228 28.2272 976.048 29.6405C977.49 30.0685 978.981 30.6159 980.196 31.4719C983.731 33.9801 983.573 38.9965 979.682 40.8079C973.134 43.8536 967.81 48.5216 962.378 53.0901C959.475 55.5386 956.403 57.8179 952.443 55.668C948.522 53.548 948.591 49.7359 948.936 45.9239C949.272 42.2611 949.42 38.7974 947.82 35.1247C945.549 29.9192 950.072 24.6739 957.094 24.6839Z" fill="white" fill-opacity="0.05"/>
<path d="M103.95 14.5118C103.605 16.4626 103.239 18.4034 102.903 20.3543C102.35 23.5293 100.464 25.4901 97.4615 26.4257C93.5307 27.6599 89.5504 28.7448 85.6689 30.1282C81.8764 31.4819 78.1825 33.1142 74.469 34.6669C69.2344 36.8466 66.6072 35.2243 66.2319 29.551C66.1332 28.0182 66.0838 26.4754 65.8072 24.9725C64.7702 19.3689 68.9974 15.3279 73.5307 14.0539C79.901 12.2624 86.1529 10.0627 92.4739 8.10194C94.2615 7.55452 96.0985 7.03696 97.9455 6.87771C101.797 6.5393 103.822 9.29632 103.95 14.5118Z" fill="white" fill-opacity="0.05"/>
<path d="M378.992 118.502C378.498 121.538 378.439 123.678 377.777 125.609C375.278 132.944 372.898 140.349 369.827 147.446C368.454 150.621 365.856 153.418 363.298 155.836C361.185 157.837 358.202 158.106 355.515 156.473C352.908 154.891 352.118 152.243 352.473 149.426C352.75 147.227 353.471 145.037 354.271 142.947C357.688 134.029 361.293 125.171 364.671 116.233C366.893 110.35 372.74 108.26 376.286 112.51C377.797 114.302 378.32 116.939 378.992 118.502Z" fill="white" fill-opacity="0.05"/>
<path d="M1031.63 104.349C1031.42 105.493 1031.31 106.946 1030.86 108.3C1030.04 110.798 1028.35 112.47 1025.66 112.769C1023.08 113.058 1021.11 111.893 1019.77 109.753C1018.86 108.31 1018.13 106.757 1017.35 105.225C1015.17 100.915 1012.44 97.1725 1008.4 94.296C1002.63 90.1754 1001.52 83.3874 1005.42 78.5004C1009.28 73.6532 1016.67 73.0759 1021.77 77.5548C1023.73 79.2867 1025.44 81.566 1026.62 83.9249C1029.73 90.2252 1030.76 97.1227 1031.63 104.349Z" fill="white" fill-opacity="0.05"/>
<path d="M585.994 0.547778C585.787 1.2644 585.648 1.96112 585.392 2.60808C578.429 19.9365 567.13 33.3533 550.3 41.6543C545.797 43.8738 541.155 45.8545 536.453 47.5863C533.984 48.502 531.248 48.8504 528.602 49.0395C527.466 49.1191 525.342 48.2631 525.263 47.6261C525.095 46.3521 525.648 44.5108 526.587 43.6548C528.483 41.923 530.725 40.4997 532.997 39.2755C537.342 36.9464 541.885 34.9657 546.231 32.6268C558.606 25.9681 569.619 17.6572 576.266 4.81768C578.498 0.527871 581.332 -0.766037 585.994 0.547778Z" fill="white" fill-opacity="0.05"/>
<path d="M526.033 204.706C517.194 204.756 508.947 206.717 501.964 212.529C501.263 213.117 500.473 213.953 500.305 214.789C499.347 219.606 494.666 221.647 490.616 218.84C487.989 217.018 486.814 214.301 487.574 211.285C488.177 208.907 489.234 206.398 490.804 204.577C499.071 194.962 509.5 191.26 521.954 193.887C524.226 194.365 526.498 195.012 528.651 195.878C530.201 196.495 531.841 197.351 532.908 198.575C533.866 199.67 534.409 201.402 534.488 202.885C534.507 203.313 532.345 204.069 531.12 204.308C529.461 204.617 527.732 204.587 526.033 204.706Z" fill="white" fill-opacity="0.05"/>
<path d="M1004.44 30.3969C1005.04 28.3863 1005.63 24.853 1007.08 21.7177C1009.62 16.2037 1014.47 15.2581 1021.13 15.5866C1025.66 15.8155 1029.66 20.2546 1030.63 25.0819C1032.39 33.8705 1025.3 43.3658 1016.43 44.1024C1010.12 44.6199 1004.46 38.8371 1004.44 30.3969Z" fill="white" fill-opacity="0.05"/>
<path d="M841.312 150.312C841.105 147.396 840.552 144.45 840.808 141.573C840.957 139.921 842.023 137.602 843.347 136.935C848.522 134.338 853.915 132.118 859.347 130.098C861.49 129.301 863.643 130.953 864.176 133.302C864.472 134.596 864.502 135.99 864.463 137.333C864.364 140.936 864.127 144.54 864.028 148.143C863.959 150.571 863.633 152.472 860.927 153.726C857.786 155.169 855.11 157.608 852.077 159.32C850.665 160.116 848.887 160.484 847.248 160.594C843.287 160.873 841.905 159.708 841.292 155.737C841.016 153.965 841.075 152.134 840.986 150.332C841.095 150.332 841.203 150.322 841.312 150.312Z" fill="white" fill-opacity="0.05"/>
<path d="M726.399 163.928C719.564 164.097 715.12 159.987 715.07 154.323C715.021 149.367 716.552 144.918 720.078 141.295C724.295 136.975 730.241 136.816 735.07 140.887C740.878 145.794 741.54 150.472 737.777 156.195C734.705 160.863 731.228 164.366 726.399 163.928Z" fill="white" fill-opacity="0.05"/>
<path d="M219.565 123.867C219.782 123.22 219.92 121.727 220.691 120.722C223.18 117.467 225.52 113.924 228.612 111.326C235.13 105.832 242.083 100.845 248.869 95.6697C250.696 94.2762 252.661 93.8184 254.488 95.5005C256.306 97.1726 256.167 99.2628 254.854 101.154C247.318 111.973 238.281 121.309 227.298 128.595C223.446 131.143 219.516 128.923 219.565 123.867Z" fill="white" fill-opacity="0.05"/>
<path d="M990.418 89.429C992.028 89.9366 993.815 90.1555 995.208 91.0215C998.536 93.1017 1001.92 95.2018 1004.85 97.8095C1008.52 101.094 1011.84 104.807 1015.14 108.489C1017.17 110.759 1017.15 113.267 1015.54 115.118C1013.97 116.91 1011.44 117.099 1008.95 115.417C1006.34 113.665 1003.87 111.704 1001.26 109.952C998.112 107.832 994.813 106.309 990.852 106.031C987.01 105.762 984.225 103.264 982.803 99.6807C980.808 94.6842 984.729 89.6181 990.418 89.429Z" fill="white" fill-opacity="0.05"/>
<path d="M877.855 216.64C873.994 217.824 871.445 219.915 870.448 223.876C870.152 225.04 868.808 226.902 868.147 226.822C866.685 226.643 864.591 225.727 864.127 224.563C863.357 222.622 863.07 220.084 863.613 218.083C866.399 207.822 880.176 202.268 889.529 207.433C890.863 208.17 892.206 208.896 893.51 209.693C896.354 211.425 897.371 214.62 895.742 217.387C894.152 220.074 891.999 222.204 888.917 223.199C883.08 225.07 879.258 222.92 877.855 216.64Z" fill="white" fill-opacity="0.05"/>
<path d="M646.893 131.172C646.004 142.778 642.28 151.746 636.058 159.638C634.735 161.311 632.67 162.604 630.695 163.48C628.601 164.406 627.505 163.361 628.048 161.121C628.838 157.897 629.747 154.662 630.972 151.586C634.231 143.455 635.535 135.114 634.399 126.385C633.905 122.573 635.09 120.274 637.668 119.517C640.354 118.731 643.258 119.985 644.621 123.24C645.856 126.166 646.409 129.391 646.893 131.172Z" fill="white" fill-opacity="0.05"/>
<path d="M756.808 24.3354C757.085 22.6533 757.144 20.9016 757.668 19.3091C758.784 15.8951 761.905 13.9145 765.342 14.1434C768.65 14.3723 771.435 16.6814 772.147 20.1053C772.482 21.7575 772.552 23.5292 772.384 25.2013C771.801 31.223 771.149 37.2446 770.329 43.2364C769.994 45.7148 769.292 48.1732 768.502 50.552C767.781 52.7019 766.517 52.9507 765.035 51.2089C763.831 49.7856 762.823 48.1334 762.023 46.4413C759.445 41.0368 757.144 30.5064 756.808 24.3354Z" fill="white" fill-opacity="0.05"/>
<path d="M139.249 134.686C142.538 134.895 145.886 136.199 147.901 139.752C149.748 143.017 148.918 146.092 147.16 149.217C145.037 153 142.291 155.866 138.094 157.18C133.827 158.514 129.442 157.389 126.834 154.224C124.029 150.81 123.773 146.55 126.133 142.34C128.711 137.741 133.718 134.676 139.249 134.686Z" fill="white" fill-opacity="0.05"/>
<path d="M454.537 153.557C453.313 156.314 452.513 159.011 451.021 161.221C449.461 163.53 447.673 163.381 446.033 161.111C444.671 159.23 443.505 157.17 442.448 155.09C440.305 150.9 437.688 147.326 433.204 145.316C429.935 143.843 428.621 141.036 429.234 138.11C429.836 135.233 432.276 133.173 435.703 132.944C442.162 132.516 447.219 135.313 450.172 140.917C452.167 144.729 453.066 149.148 454.537 153.557Z" fill="white" fill-opacity="0.05"/>
<path d="M818.882 199.998C819.297 192.932 821.312 187.975 826.102 184.481C829.243 182.182 832.67 181.645 836.215 183.556C838.754 184.929 840.047 187.627 839.514 190.384C838.991 193.071 837.282 194.474 834.665 195.201C833.628 195.49 832.265 196.694 832.117 197.64C831.801 199.809 832.028 202.089 832.255 204.298C832.403 205.811 833.243 207.304 833.173 208.777C833.114 210.27 832.729 212.44 831.741 213.027C830.576 213.724 828.117 213.664 827.06 212.838C824.709 211.007 822.527 208.717 820.966 206.179C819.662 204.079 819.307 201.342 818.882 199.998Z" fill="white" fill-opacity="0.05"/>
<path d="M456.266 0.278809C471.08 0.278809 485.569 0.278809 500.868 0.278809C499.248 2.15 498.231 3.90175 496.74 4.97669C486.932 11.9937 476.364 14.5218 464.838 9.71439C460.71 8.00245 457.619 5.11603 456.266 0.278809Z" fill="white" fill-opacity="0.05"/>
<path d="M338.982 0.308594C343.624 0.308594 347.812 0.308594 352.552 0.308594C354.182 7.43504 355.881 14.6212 357.412 21.8472C357.698 23.2008 357.678 24.8929 357.115 26.0972C356.424 27.5902 355.189 29.5012 353.856 29.8197C352.513 30.1481 350.557 29.0135 349.244 28.0181C348.177 27.2119 347.416 25.7488 346.923 24.435C344.414 17.7664 341.994 11.0679 339.634 4.34957C339.229 3.195 339.229 1.89114 338.982 0.308594Z" fill="white" fill-opacity="0.05"/>
<path d="M587.999 185.945C591.831 186.353 595.752 187.517 598.705 190.752C601.342 193.628 600.799 196.296 597.767 198.724C595.416 200.615 593.302 202.865 591.377 205.194C589.984 206.876 588.601 208.04 586.379 207.483C584.246 206.946 583.574 205.224 583.199 203.243C582.527 199.64 581.865 196.037 581.006 192.474C580.088 188.632 582.922 185.745 587.999 185.945Z" fill="white" fill-opacity="0.05"/>
<path d="M777.885 29.1129C778.132 26.973 778.102 24.7634 778.675 22.723C779.633 19.2991 782.971 17.4777 786.231 18.2242C789.342 18.9309 791.682 21.9765 791.031 25.3706C789.924 31.1434 788.265 36.7968 784.324 41.415C782.329 43.7441 781.223 43.6943 780.265 40.7581C779.06 37.0356 778.418 33.134 777.529 29.302C777.658 29.2324 777.766 29.1727 777.885 29.1129Z" fill="white" fill-opacity="0.05"/>
<path d="M1034.2 190.244C1032.76 193.071 1031.67 196.177 1029.78 198.655C1027.53 201.601 1023.17 201.89 1020.23 199.959C1017.5 198.157 1016.51 194.912 1018.19 191.299C1019.31 188.911 1020.95 186.661 1022.75 184.73C1024.66 182.68 1027.29 182.103 1029.93 183.387C1032.57 184.671 1033.45 187.079 1033.53 189.876C1033.76 189.996 1033.98 190.125 1034.2 190.244Z" fill="white" fill-opacity="0.05"/>
<path d="M249.372 55.439C248.74 57.4595 248.326 59.7089 247.358 61.6797C245.856 64.7253 242.795 66.2282 240.089 65.7206C237.106 65.1633 234.726 62.4261 234.261 59.0321C233.649 54.5731 236.977 48.7804 241.096 47.1182C243.832 46.0134 246.686 46.959 247.891 49.706C248.632 51.3981 248.849 53.319 249.372 55.439Z" fill="white" fill-opacity="0.05"/>
<path d="M682.339 149.028C677.549 148.282 673.026 147.655 668.542 146.839C666.083 146.391 664.552 144.838 664.453 142.2C664.354 139.772 665.885 137.841 668.571 137.294C669.934 137.015 671.554 136.806 672.789 137.294C678.181 139.414 683.485 141.762 688.769 144.151C689.46 144.46 689.855 145.445 690.389 146.112C689.727 146.63 689.144 147.406 688.404 147.625C686.359 148.232 684.246 148.61 682.339 149.028Z" fill="white" fill-opacity="0.05"/>
<path d="M792.809 163.59C790.053 164.645 787.781 165.78 785.381 166.367C780.414 167.581 775.446 167.581 770.675 165.272C768.562 164.247 767.485 162.674 767.91 160.285C768.295 158.165 770.409 156.424 772.749 156.981C779.08 158.494 785.322 160.365 791.594 162.127C791.801 162.187 791.939 162.525 792.809 163.59Z" fill="white" fill-opacity="0.05"/>
<path d="M370.952 0.348389C371.841 4.4889 372.829 8.58959 373.589 12.7301C374.152 15.7857 373.105 17.9953 371.13 18.6622C369.046 19.3688 367.12 18.3238 365.609 15.4871C364.77 13.9046 364.039 12.2424 363.456 10.5504C362.31 7.25587 361.293 3.90166 360.147 0.348389C363.881 0.348389 367.318 0.348389 370.952 0.348389Z" fill="white" fill-opacity="0.05"/>
<path d="M874.675 0.38888C874.754 0.359021 874.843 0.289349 874.922 0.289349C884.077 0.279396 883.198 -1.59179 883.386 8.01299C883.465 11.9047 882.675 15.8063 882.27 19.7577C876.502 18.4936 872.314 6.99777 874.675 0.38888Z" fill="white" fill-opacity="0.05"/>
<path d="M2.83447 29.6006C3.4962 27.9682 3.92089 26.1767 4.85916 24.7235C6.24187 22.5836 8.87891 22.066 11.0616 23.1111C14.4295 24.7235 16.1382 31.1831 13.9752 34.2288C12.4542 36.3687 10.3604 37.145 7.84187 36.3786C5.06657 35.5326 3.24929 32.8453 2.83447 29.6006Z" fill="white" fill-opacity="0.05"/>
<path d="M720.137 105.891C717.194 105.871 715.07 104.01 715.06 101.432C715.04 97.0032 717.756 93.3106 720.986 93.3604C724.147 93.4101 726.468 96.6947 726.32 100.905C726.231 103.363 723.07 105.911 720.137 105.891Z" fill="white" fill-opacity="0.05"/>
<path d="M986.102 67.4723C983.455 67.4125 981.104 65.0636 981.104 62.4857C981.104 59.5097 983.346 57.1608 986.092 57.2703C989.104 57.3897 991.979 60.1567 991.929 62.8938C991.89 65.6906 989.529 67.5519 986.102 67.4723Z" fill="white" fill-opacity="0.05"/>
<path d="M518.063 53.1598C518.113 56.086 515.673 58.3951 512.463 58.4449C509.816 58.4847 507.545 56.3746 507.486 53.8366C507.416 50.9402 510.409 47.9443 513.352 47.9642C515.95 47.9642 518.014 50.2534 518.063 53.1598Z" fill="white" fill-opacity="0.05"/>
<path d="M552.631 202.905C552.572 205.532 550.35 207.543 547.643 207.404C544.848 207.264 542.616 204.995 542.725 202.387C542.834 199.859 544.947 197.819 547.446 197.829C550.31 197.849 552.69 200.188 552.631 202.905Z" fill="white" fill-opacity="0.05"/>
<path d="M624.433 179.117C622.942 178.977 621.401 178.44 621.401 176.171C621.401 174.051 623.456 172.339 625.846 172.418C627.92 172.488 629.52 174.13 629.382 176.041C629.233 178.052 627.426 179.276 624.433 179.117Z" fill="white" fill-opacity="0.05"/>
<path d="M683.544 152.821C680.107 154.761 676.7 156.772 673.184 158.544C672.69 158.792 671.169 158.036 670.922 157.419C670.665 156.762 671.09 155.379 671.682 154.921C672.7 154.134 674.043 153.657 675.327 153.338C677.885 152.721 680.492 152.293 683.07 151.795C683.228 152.144 683.386 152.482 683.544 152.821Z" fill="white" fill-opacity="0.05"/>
<path d="M1019.84 212.738C1021.71 212.858 1022.89 214.012 1023 216.122C1023.1 218.113 1021.5 219.526 1019.33 219.536C1017.16 219.536 1015.96 218.481 1015.96 216.262C1015.97 214.231 1017.56 212.728 1019.84 212.738Z" fill="white" fill-opacity="0.05"/>
<path d="M878.793 226.324C877.332 227.409 876.532 228.464 875.801 228.415C875.02 228.355 874.319 227.26 873.588 226.623C874.25 225.906 874.833 224.742 875.603 224.593C876.304 224.463 877.213 225.419 878.793 226.324Z" fill="white" fill-opacity="0.05"/>
<g clip-path="url(#clip1_774_23349)" filter="url(#filter0_f_774_23349)">
<path d="M914.465 162.689C912.451 159.499 911.445 157.906 909.828 157.541C908.211 157.176 906.618 158.182 903.429 160.195C900.24 162.209 898.647 163.215 898.281 164.832C897.916 166.448 898.922 168.041 900.936 171.231M899.331 191.166C895.304 184.789 893.291 181.6 894.022 178.368C894.751 175.136 897.941 173.122 904.318 169.095L911.082 164.824C917.459 160.798 920.649 158.784 923.881 159.516C927.113 160.244 929.127 163.434 933.153 169.811C937.18 176.188 939.194 179.378 938.462 182.609C937.733 185.842 934.544 187.856 928.167 191.882L921.402 196.153C915.025 200.18 911.835 202.194 908.604 201.462C905.371 200.733 903.358 197.544 899.331 191.166Z" stroke="url(#paint0_linear_774_23349)" stroke-width="1.5"/>
<path d="M918.779 178.887L913.705 182.09M914.64 177.952L917.844 183.025" stroke="url(#paint1_linear_774_23349)" stroke-width="1.5" stroke-linecap="round"/>
<path d="M920.513 187.253C924.249 184.894 925.365 179.954 923.007 176.218C920.648 172.482 915.707 171.365 911.971 173.724C908.235 176.083 907.119 181.024 909.478 184.76C911.836 188.496 916.777 189.612 920.513 187.253Z" stroke="url(#paint2_linear_774_23349)" stroke-width="1.5"/>
</g>
</g>
<defs>
<filter id="filter0_f_774_23349" x="877" y="140" width="74.2131" height="74.2131" filterUnits="userSpaceOnUse" color-interpolation-filters="sRGB">
<feFlood flood-opacity="0" result="BackgroundImageFix"/>
<feBlend mode="normal" in="SourceGraphic" in2="BackgroundImageFix" result="shape"/>
<feGaussianBlur stdDeviation="2" result="effect1_foregroundBlur_774_23349"/>
</filter>
<linearGradient id="paint0_linear_774_23349" x1="903.429" y1="160.195" x2="924.784" y2="194.018" gradientUnits="userSpaceOnUse">
<stop stop-color="white" stop-opacity="0.16"/>
<stop offset="1" stop-color="white" stop-opacity="0.2"/>
</linearGradient>
<linearGradient id="paint1_linear_774_23349" x1="914.64" y1="177.952" x2="917.844" y2="183.025" gradientUnits="userSpaceOnUse">
<stop stop-color="white" stop-opacity="0.16"/>
<stop offset="1" stop-color="white" stop-opacity="0.2"/>
</linearGradient>
<linearGradient id="paint2_linear_774_23349" x1="911.971" y1="173.724" x2="920.513" y2="187.253" gradientUnits="userSpaceOnUse">
<stop stop-color="white" stop-opacity="0.16"/>
<stop offset="1" stop-color="white" stop-opacity="0.2"/>
</linearGradient>
<clipPath id="clip0_774_23349">
<rect width="1081" height="266" fill="white"/>
</clipPath>
<clipPath id="clip1_774_23349">
<rect width="48" height="48" fill="white" transform="translate(881 169.626) rotate(-32.2682)"/>
</clipPath>
</defs>
</svg>
