<svg width="1440" height="585" viewBox="0 0 1440 585" fill="none" xmlns="http://www.w3.org/2000/svg">
<g opacity="0.1" filter="url(#filter0_f_908_30196)">
<path d="M37.5873 705.823C82.5039 712.109 128.284 706.058 170.025 688.317C211.765 670.576 247.894 641.815 274.54 605.114C301.186 568.412 317.346 525.153 321.289 479.971C325.232 434.789 316.81 389.384 296.924 348.622C277.038 307.86 246.438 273.275 208.402 248.572C170.365 223.87 126.325 209.979 80.9988 208.39C35.6724 206.8 -9.2326 217.57 -48.9064 239.548C-88.5801 261.525 -121.528 293.881 -144.221 333.149L-123.847 344.923C-103.29 309.351 -73.4431 280.04 -37.5037 260.132C-1.56426 240.223 39.114 230.467 80.1739 231.907C121.234 233.347 161.129 245.93 195.585 268.307C230.041 290.685 257.761 322.014 275.775 358.94C293.789 395.865 301.418 436.996 297.847 477.925C294.275 518.855 279.636 558.042 255.498 591.289C231.36 624.535 198.632 650.589 160.82 666.66C123.009 682.731 81.5373 688.213 40.8487 682.519L37.5873 705.823Z" fill="url(#paint0_linear_908_30196)"/>
</g>
<g opacity="0.1" filter="url(#filter1_f_908_30196)">
<path d="M1588.76 354.114C1567.26 314.182 1535.29 280.851 1496.3 257.693C1457.3 234.535 1412.74 222.421 1367.39 222.649C1322.03 222.877 1277.6 235.439 1238.84 258.989C1200.07 282.539 1168.45 316.189 1147.35 356.336C1126.25 396.483 1116.47 441.614 1119.05 486.894C1121.64 532.175 1136.49 575.899 1162.02 613.384C1187.56 650.869 1222.8 680.702 1263.99 699.687C1305.18 718.673 1350.76 726.096 1395.85 721.162L1393.29 697.77C1352.44 702.24 1311.16 695.515 1273.84 678.317C1236.53 661.118 1204.6 634.093 1181.47 600.137C1158.34 566.18 1144.89 526.571 1142.55 485.553C1140.2 444.534 1149.06 403.652 1168.18 367.284C1187.29 330.916 1215.94 300.433 1251.05 279.1C1286.17 257.766 1326.42 246.387 1367.51 246.18C1408.59 245.974 1448.96 256.947 1484.28 277.926C1519.61 298.904 1548.56 329.097 1568.04 365.271L1588.76 354.114Z" fill="url(#paint1_linear_908_30196)"/>
</g>
<g clip-path="url(#clip0_908_30196)" filter="url(#filter2_f_908_30196)">
<path d="M1245.88 45.5925C1243.96 44.6603 1242.1 43.6526 1240.29 42.5694C1238.48 41.4862 1236.7 40.3515 1234.94 39.1652C1234.14 38.5928 1233.63 37.8307 1233.38 36.8787C1233.14 35.9268 1233.23 35.0173 1233.65 34.1502L1234.22 32.9809C1232.84 31.7891 1231.95 30.3045 1231.58 28.527C1231.2 26.7495 1231.41 25.0359 1232.21 23.3863C1233 21.7672 1234.21 20.5572 1235.84 19.7562C1237.47 18.9553 1239.18 18.7306 1240.97 19.0823L1241.98 17.0135C1242.46 16.0241 1243.22 15.3443 1244.25 14.9742C1245.28 14.604 1246.28 14.6526 1247.23 15.1199C1248.1 15.5423 1248.94 16.0507 1249.75 16.645C1250.55 17.2393 1251.37 17.7779 1252.21 18.2609C1253.13 18.817 1254.04 19.3323 1254.94 19.8069C1255.84 20.2814 1256.77 20.7514 1257.72 21.217C1258.68 21.6831 1259.63 22.1234 1260.56 22.538C1261.49 22.9526 1262.45 23.3477 1263.46 23.7233C1264.35 24.0857 1265.27 24.3919 1266.21 24.6419C1267.14 24.8918 1268.04 25.2283 1268.91 25.6513C1269.9 26.132 1270.58 26.8962 1270.94 27.944C1271.3 28.9918 1271.24 30.0095 1270.76 30.9971L1269.76 33.0659C1271.14 34.2577 1272.03 35.7351 1272.41 37.4982C1272.8 39.2613 1272.59 40.9665 1271.79 42.6137C1270.99 44.2628 1269.77 45.4806 1268.15 46.2671C1266.53 47.0537 1264.82 47.2706 1263.03 46.9177L1262.46 48.087C1262.02 48.9865 1261.35 49.6316 1260.43 50.0225C1259.52 50.4134 1258.59 50.4722 1257.65 50.1991C1255.62 49.5813 1253.62 48.8885 1251.66 48.1207C1249.7 47.3529 1247.77 46.5102 1245.88 45.5925ZM1248.94 39.2963C1250.23 39.9226 1251.55 40.4705 1252.9 40.94C1254.24 41.4094 1255.63 41.7848 1257.05 42.0662C1257.63 42.1639 1258.14 42.0612 1258.58 41.758C1259.03 41.4547 1259.29 41.0269 1259.38 40.4743C1259.46 39.9218 1259.35 39.4158 1259.06 38.9564C1258.76 38.4971 1258.34 38.2264 1257.78 38.1444C1256.53 37.9053 1255.32 37.5762 1254.15 37.1572C1252.98 36.7382 1251.83 36.2519 1250.69 35.6984C1249.55 35.1449 1248.44 34.5421 1247.37 33.89C1246.3 33.238 1245.28 32.4784 1244.34 31.6115C1243.93 31.2285 1243.46 31.055 1242.92 31.0909C1242.39 31.1268 1241.93 31.3482 1241.54 31.7551C1241.16 32.162 1240.99 32.6374 1241.05 33.1812C1241.1 33.7251 1241.33 34.1882 1241.73 34.5706C1242.8 35.5722 1243.94 36.4504 1245.15 37.2053C1246.36 37.9601 1247.62 38.6571 1248.94 39.2963ZM1236.1 29.1113L1239.09 22.95C1238.36 23.003 1237.71 23.2228 1237.13 23.6092C1236.56 23.9957 1236.11 24.504 1235.81 25.1342C1235.49 25.7938 1235.36 26.4701 1235.41 27.163C1235.46 27.8559 1235.69 28.5054 1236.1 29.1113ZM1264.88 43.095C1265.58 43.0274 1266.23 42.8038 1266.82 42.4244C1267.41 42.0449 1267.87 41.5254 1268.19 40.8658C1268.5 40.2362 1268.62 39.5714 1268.55 38.8715C1268.48 38.1716 1268.26 37.5256 1267.88 36.9336L1264.88 43.095ZM1252.44 32.1005C1253.73 32.7269 1255.04 33.2748 1256.39 33.7442C1257.74 34.2137 1259.12 34.5891 1260.54 34.8705C1261.12 34.9682 1261.64 34.8654 1262.08 34.5622C1262.52 34.259 1262.79 33.8311 1262.87 33.2786C1262.95 32.726 1262.85 32.2201 1262.55 31.7607C1262.26 31.3013 1261.83 31.0307 1261.28 30.9487C1260.02 30.7096 1258.81 30.3805 1257.65 29.9615C1256.48 29.5424 1255.32 29.0562 1254.18 28.5027C1253.05 27.9491 1251.94 27.3392 1250.88 26.6727C1249.81 26.0062 1248.79 25.2539 1247.83 24.4157C1247.43 24.0328 1246.95 23.8592 1246.42 23.8952C1245.88 23.9311 1245.41 24.1675 1245.02 24.6044C1244.63 25.0112 1244.46 25.4828 1244.5 26.0191C1244.53 26.5554 1244.77 27.0223 1245.21 27.4198C1246.3 28.3614 1247.45 29.2169 1248.66 29.9861C1249.86 30.7554 1251.12 31.4602 1252.44 32.1005Z" fill="url(#paint2_linear_908_30196)"/>
</g>
<g filter="url(#filter3_f_908_30196)">
<path d="M144.64 291.58C144.453 291.766 144.304 291.987 144.202 292.231C144.101 292.474 144.048 292.736 144.048 293C144.048 293.264 144.101 293.525 144.202 293.769C144.304 294.013 144.453 294.234 144.64 294.42C145.015 294.792 145.522 295.001 146.05 295.001C146.578 295.001 147.085 294.792 147.46 294.42C147.647 294.234 147.796 294.013 147.898 293.769C147.999 293.525 148.052 293.264 148.052 293C148.052 292.736 147.999 292.474 147.898 292.231C147.796 291.987 147.647 291.766 147.46 291.58C147.085 291.207 146.578 290.998 146.05 290.998C145.522 290.998 145.015 291.207 144.64 291.58ZM149.58 296.54C149.207 296.915 148.998 297.422 148.998 297.95C148.998 298.478 149.207 298.985 149.58 299.36C149.766 299.547 149.987 299.696 150.231 299.798C150.475 299.899 150.736 299.952 151 299.952C151.264 299.952 151.525 299.899 151.769 299.798C152.013 299.696 152.234 299.547 152.42 299.36C152.792 298.985 153.002 298.478 153.002 297.95C153.002 297.422 152.792 296.915 152.42 296.54C152.234 296.352 152.013 296.204 151.769 296.102C151.525 296.001 151.264 295.948 151 295.948C150.736 295.948 150.475 296.001 150.231 296.102C149.987 296.204 149.766 296.352 149.58 296.54ZM167.58 276.54C165.404 274.346 162.467 273.076 159.378 272.994C156.29 272.913 153.289 274.025 151 276.1C148.722 274.049 145.745 272.948 142.68 273.022C139.616 273.097 136.696 274.341 134.52 276.5C132.358 278.68 131.114 281.605 131.043 284.674C130.972 287.743 132.081 290.723 134.14 293C132.6 294.721 131.59 296.85 131.23 299.131C130.871 301.413 131.177 303.749 132.112 305.861C133.048 307.972 134.573 309.769 136.504 311.035C138.435 312.302 140.691 312.984 143 313C145.96 313.003 148.815 311.897 151 309.9C153.279 311.957 156.26 313.061 159.33 312.987C162.399 312.913 165.323 311.665 167.5 309.5C169.659 307.318 170.9 304.391 170.967 301.322C171.034 298.252 169.922 295.274 167.86 293C169.922 290.726 171.034 287.747 170.967 284.678C170.9 281.609 169.659 278.682 167.5 276.5L167.58 276.54ZM164.66 279.34C166.051 280.771 166.857 282.67 166.92 284.664C166.983 286.658 166.298 288.604 165 290.12L153.88 279C155.409 277.731 157.349 277.066 159.334 277.128C161.32 277.191 163.214 277.978 164.66 279.34ZM137.34 306.66C135.949 305.229 135.143 303.33 135.08 301.336C135.017 299.341 135.702 297.395 137 295.88L148.2 307.08C146.654 308.356 144.693 309.018 142.69 308.941C140.687 308.863 138.783 308.052 137.34 306.66ZM164.66 306.66C163.141 308.112 161.121 308.923 159.02 308.923C156.919 308.923 154.898 308.112 153.38 306.66L137.38 290.66C135.89 289.161 135.054 287.133 135.054 285.02C135.054 282.906 135.89 280.879 137.38 279.38C138.879 277.89 140.906 277.054 143.02 277.054C145.133 277.054 147.161 277.89 148.66 279.38L164.66 295.38C166.15 296.879 166.986 298.906 166.986 301.02C166.986 303.133 166.15 305.161 164.66 306.66ZM154.54 291.58C154.353 291.766 154.204 291.987 154.102 292.231C154.001 292.474 153.948 292.736 153.948 293C153.948 293.264 154.001 293.525 154.102 293.769C154.204 294.013 154.353 294.234 154.54 294.42C154.915 294.792 155.422 295.001 155.95 295.001C156.478 295.001 156.985 294.792 157.36 294.42C157.547 294.234 157.696 294.013 157.798 293.769C157.899 293.525 157.952 293.264 157.952 293C157.952 292.736 157.899 292.474 157.798 292.231C157.696 291.987 157.547 291.766 157.36 291.58C156.985 291.207 156.478 290.998 155.95 290.998C155.422 290.998 154.915 291.207 154.54 291.58ZM149.58 286.64C149.207 287.015 148.998 287.522 148.998 288.05C148.998 288.578 149.207 289.085 149.58 289.46C149.766 289.647 149.987 289.796 150.231 289.898C150.475 289.999 150.736 290.052 151 290.052C151.264 290.052 151.525 289.999 151.769 289.898C152.013 289.796 152.234 289.647 152.42 289.46C152.792 289.085 153.002 288.578 153.002 288.05C153.002 287.522 152.792 287.015 152.42 286.64C152.234 286.452 152.013 286.304 151.769 286.202C151.525 286.101 151.264 286.048 151 286.048C150.736 286.048 150.475 286.101 150.231 286.202C149.987 286.304 149.766 286.452 149.58 286.64Z" fill="url(#paint3_linear_908_30196)"/>
</g>
<defs>
<filter id="filter0_f_908_30196" x="-146.221" y="206.236" width="470.456" height="504" filterUnits="userSpaceOnUse" color-interpolation-filters="sRGB">
<feFlood flood-opacity="0" result="BackgroundImageFix"/>
<feBlend mode="normal" in="SourceGraphic" in2="BackgroundImageFix" result="shape"/>
<feGaussianBlur stdDeviation="1" result="effect1_foregroundBlur_908_30196"/>
</filter>
<filter id="filter1_f_908_30196" x="1116.65" y="220.646" width="474.114" height="504" filterUnits="userSpaceOnUse" color-interpolation-filters="sRGB">
<feFlood flood-opacity="0" result="BackgroundImageFix"/>
<feBlend mode="normal" in="SourceGraphic" in2="BackgroundImageFix" result="shape"/>
<feGaussianBlur stdDeviation="1" result="effect1_foregroundBlur_908_30196"/>
</filter>
<filter id="filter2_f_908_30196" x="1217.93" y="-1.07495" width="68.1498" height="68.1499" filterUnits="userSpaceOnUse" color-interpolation-filters="sRGB">
<feFlood flood-opacity="0" result="BackgroundImageFix"/>
<feBlend mode="normal" in="SourceGraphic" in2="BackgroundImageFix" result="shape"/>
<feGaussianBlur stdDeviation="1" result="effect1_foregroundBlur_908_30196"/>
</filter>
<filter id="filter3_f_908_30196" x="125" y="267" width="52" height="52" filterUnits="userSpaceOnUse" color-interpolation-filters="sRGB">
<feFlood flood-opacity="0" result="BackgroundImageFix"/>
<feBlend mode="normal" in="SourceGraphic" in2="BackgroundImageFix" result="shape"/>
<feGaussianBlur stdDeviation="1" result="effect1_foregroundBlur_908_30196"/>
</filter>
<linearGradient id="paint0_linear_908_30196" x1="305" y1="556" x2="36.9999" y2="234" gradientUnits="userSpaceOnUse">
<stop stop-color="white"/>
<stop offset="1" stop-color="white"/>
</linearGradient>
<linearGradient id="paint1_linear_908_30196" x1="1309.77" y1="227.145" x2="1208.7" y2="633.707" gradientUnits="userSpaceOnUse">
<stop stop-color="white"/>
<stop offset="1" stop-color="white"/>
</linearGradient>
<linearGradient id="paint2_linear_908_30196" x1="1258.12" y1="20.4074" x2="1245.88" y2="45.5925" gradientUnits="userSpaceOnUse">
<stop stop-color="white" stop-opacity="0.16"/>
<stop offset="1" stop-color="white" stop-opacity="0.2"/>
</linearGradient>
<linearGradient id="paint3_linear_908_30196" x1="151.005" y1="272.99" x2="151.005" y2="313" gradientUnits="userSpaceOnUse">
<stop stop-color="white" stop-opacity="0.16"/>
<stop offset="1" stop-color="white" stop-opacity="0.2"/>
</linearGradient>
<clipPath id="clip0_908_30196">
<rect width="48" height="48" fill="white" transform="translate(1240.9 0.925049) rotate(25.9119)"/>
</clipPath>
</defs>
</svg>
