<svg width="48" height="48" viewBox="0 0 48 48" fill="none" xmlns="http://www.w3.org/2000/svg">
<g id="uil:medical" filter="url(#filter0_f_532_38865)">
<path id="Vector" d="M17.64 22.5799C17.4525 22.7658 17.3037 22.987 17.2022 23.2308C17.1006 23.4745 17.0484 23.7359 17.0484 23.9999C17.0484 24.2639 17.1006 24.5253 17.2022 24.7691C17.3037 25.0128 17.4525 25.234 17.64 25.4199C18.0147 25.7924 18.5216 26.0015 19.05 26.0015C19.5783 26.0015 20.0852 25.7924 20.46 25.4199C20.6474 25.234 20.7962 25.0128 20.8978 24.7691C20.9993 24.5253 21.0516 24.2639 21.0516 23.9999C21.0516 23.7359 20.9993 23.4745 20.8978 23.2308C20.7962 22.987 20.6474 22.7658 20.46 22.5799C20.0852 22.2074 19.5783 21.9983 19.05 21.9983C18.5216 21.9983 18.0147 22.2074 17.64 22.5799ZM22.58 27.5399C22.2075 27.9146 21.9984 28.4215 21.9984 28.9499C21.9984 29.4783 22.2075 29.9852 22.58 30.3599C22.7659 30.5474 22.9871 30.6962 23.2308 30.7977C23.4745 30.8992 23.7359 30.9515 24 30.9515C24.264 30.9515 24.5254 30.8992 24.7691 30.7977C25.0128 30.6962 25.234 30.5474 25.42 30.3599C25.7925 29.9852 26.0016 29.4783 26.0016 28.9499C26.0016 28.4215 25.7925 27.9146 25.42 27.5399C25.234 27.3525 25.0128 27.2037 24.7691 27.1021C24.5254 27.0006 24.264 26.9483 24 26.9483C23.7359 26.9483 23.4745 27.0006 23.2308 27.1021C22.9871 27.2037 22.7659 27.3525 22.58 27.5399ZM40.58 7.53991C38.4044 5.34637 35.4666 4.07642 32.3782 3.99446C29.2898 3.9125 26.2888 5.02484 24 7.09991C21.7217 5.04907 18.7449 3.94787 15.6804 4.02225C12.6159 4.09663 9.69609 5.34095 7.51997 7.49991C5.358 9.67959 4.11366 12.605 4.04298 15.6742C3.97229 18.7434 5.08064 21.723 7.13997 23.9999C5.60031 25.7212 4.59004 27.8502 4.23039 30.1314C3.87074 32.4126 4.17698 34.7491 5.11236 36.8606C6.04775 38.9721 7.57255 40.7688 9.50378 42.0352C11.435 43.3016 13.6906 43.9837 16 43.9999C18.9604 44.0031 21.8146 42.8971 24 40.8999C26.2794 42.9566 29.2604 44.0614 32.3297 43.987C35.3989 43.9126 38.3229 42.6647 40.5 40.4999C42.6592 38.3176 43.8999 35.3908 43.9668 32.3216C44.0338 29.2524 42.9219 26.2743 40.86 23.9999C42.9219 21.7255 44.0338 18.7474 43.9668 15.6782C43.8999 12.609 42.6592 9.68219 40.5 7.49991L40.58 7.53991ZM37.66 10.3399C39.0508 11.7707 39.8568 13.6696 39.9197 15.664C39.9826 17.6584 39.2979 19.6043 38 21.1199L26.88 9.99991C28.4088 8.73138 30.3488 8.06573 32.3344 8.12835C34.32 8.19098 36.2141 8.97756 37.66 10.3399ZM10.34 37.6599C8.9491 36.2291 8.14314 34.3302 8.08024 32.3358C8.01733 30.3414 8.70203 28.3955 9.99997 26.8799L21.2 38.0799C19.6542 39.356 17.6928 40.0184 15.6899 39.941C13.6869 39.8635 11.7826 39.0515 10.34 37.6599ZM37.66 37.6599C36.1414 39.1122 34.1212 39.9228 32.02 39.9228C29.9187 39.9228 27.8985 39.1122 26.38 37.6599L10.38 21.6599C8.88996 20.161 8.05363 18.1334 8.05363 16.0199C8.05363 13.9064 8.88996 11.8788 10.38 10.3799C11.8789 8.88991 13.9065 8.05357 16.02 8.05357C18.1335 8.05357 20.1611 8.88991 21.66 10.3799L37.66 26.3799C39.15 27.8788 39.9863 29.9064 39.9863 32.0199C39.9863 34.1334 39.15 36.161 37.66 37.6599ZM27.54 22.5799C27.3525 22.7658 27.2037 22.987 27.1022 23.2308C27.0006 23.4745 26.9484 23.7359 26.9484 23.9999C26.9484 24.2639 27.0006 24.5253 27.1022 24.7691C27.2037 25.0128 27.3525 25.234 27.54 25.4199C27.9147 25.7924 28.4216 26.0015 28.95 26.0015C29.4783 26.0015 29.9852 25.7924 30.36 25.4199C30.5474 25.234 30.6962 25.0128 30.7978 24.7691C30.8993 24.5253 30.9516 24.2639 30.9516 23.9999C30.9516 23.7359 30.8993 23.4745 30.7978 23.2308C30.6962 22.987 30.5474 22.7658 30.36 22.5799C29.9852 22.2074 29.4783 21.9983 28.95 21.9983C28.4216 21.9983 27.9147 22.2074 27.54 22.5799ZM22.58 17.6399C22.2075 18.0146 21.9984 18.5215 21.9984 19.0499C21.9984 19.5783 22.2075 20.0852 22.58 20.4599C22.7659 20.6474 22.9871 20.7962 23.2308 20.8977C23.4745 20.9992 23.7359 21.0515 24 21.0515C24.264 21.0515 24.5254 20.9992 24.7691 20.8977C25.0128 20.7962 25.234 20.6474 25.42 20.4599C25.7925 20.0852 26.0016 19.5783 26.0016 19.0499C26.0016 18.5215 25.7925 18.0146 25.42 17.6399C25.234 17.4525 25.0128 17.3037 24.7691 17.2021C24.5254 17.1006 24.264 17.0483 24 17.0483C23.7359 17.0483 23.4745 17.1006 23.2308 17.2021C22.9871 17.3037 22.7659 17.4525 22.58 17.6399Z" fill="url(#paint0_linear_532_38865)"/>
</g>
<defs>
<filter id="filter0_f_532_38865" x="-2" y="-2" width="52" height="52" filterUnits="userSpaceOnUse" color-interpolation-filters="sRGB">
<feFlood flood-opacity="0" result="BackgroundImageFix"/>
<feBlend mode="normal" in="SourceGraphic" in2="BackgroundImageFix" result="shape"/>
<feGaussianBlur stdDeviation="1" result="effect1_foregroundBlur_532_38865"/>
</filter>
<linearGradient id="paint0_linear_532_38865" x1="24.0047" y1="3.99023" x2="24.0047" y2="43.9999" gradientUnits="userSpaceOnUse">
<stop stop-color="white" stop-opacity="0.16"/>
<stop offset="1" stop-color="white" stop-opacity="0.2"/>
</linearGradient>
</defs>
</svg>
