<svg width="66" height="66" viewBox="0 0 66 66" fill="none" xmlns="http://www.w3.org/2000/svg">
<g id="material-symbols:medical-mask" clip-path="url(#clip0_532_38867)" filter="url(#filter0_f_532_38867)">
<path id="Vector" d="M26.8822 45.5925C24.9633 44.6603 23.0997 43.6526 21.2912 42.5694C19.4827 41.4862 17.6993 40.3515 15.9409 39.1652C15.1443 38.5928 14.6251 37.8307 14.3835 36.8787C14.1419 35.9268 14.2317 35.0173 14.6529 34.1502L15.221 32.9809C13.8359 31.7891 12.954 30.3045 12.5753 28.527C12.1967 26.7495 12.4088 25.0359 13.2118 23.3863C13.9983 21.7672 15.2073 20.5572 16.8387 19.7562C18.47 18.9553 20.1816 18.7306 21.9734 19.0823L22.9784 17.0135C23.4591 16.0241 24.2156 15.3443 25.2478 14.9742C26.2799 14.604 27.2755 14.6526 28.2343 15.1199C29.1038 15.5423 29.9412 16.0507 30.7464 16.645C31.5517 17.2393 32.3736 17.7779 33.2122 18.2609C34.1279 18.817 35.036 19.3323 35.9365 19.8069C36.837 20.2814 37.7663 20.7514 38.7246 21.217C39.684 21.6831 40.6285 22.1234 41.5582 22.538C42.4878 22.9526 43.4536 23.3477 44.4555 23.7233C45.3541 24.0857 46.2712 24.3919 47.2067 24.6419C48.1422 24.8918 49.0438 25.2283 49.9115 25.6513C50.9009 26.132 51.5769 26.8962 51.9395 27.944C52.3021 28.9918 52.2427 30.0095 51.7614 30.9971L50.7563 33.0659C52.1414 34.2577 53.0268 35.7351 53.4125 37.4982C53.7981 39.2613 53.5901 40.9665 52.7883 42.6137C51.9872 44.2628 50.7744 45.4806 49.1501 46.2671C47.5257 47.0537 45.8179 47.2706 44.0267 46.9177L43.4586 48.087C43.0216 48.9865 42.3465 49.6316 41.4332 50.0225C40.5199 50.4134 39.593 50.4722 38.6525 50.1991C36.6179 49.5813 34.6198 48.8885 32.6581 48.1207C30.6964 47.3529 28.7711 46.5102 26.8822 45.5925ZM29.9411 39.2963C31.2303 39.9226 32.5488 40.4705 33.8965 40.94C35.2442 41.4094 36.6271 41.7848 38.0454 42.0662C38.628 42.1639 39.1411 42.0612 39.5849 41.758C40.0287 41.4547 40.2922 41.0269 40.3753 40.4743C40.4584 39.9218 40.3522 39.4158 40.0566 38.9564C39.7609 38.4971 39.3365 38.2264 38.7834 38.1444C37.5284 37.9053 36.3171 37.5762 35.1495 37.1572C33.9819 36.7382 32.8284 36.2519 31.6891 35.6984C30.5497 35.1449 29.4433 34.5421 28.3696 33.89C27.2959 33.238 26.2848 32.4784 25.3364 31.6115C24.9295 31.2285 24.4579 31.055 23.9216 31.0909C23.3853 31.1268 22.9257 31.3482 22.5427 31.7551C22.1598 32.162 21.994 32.6374 22.0455 33.1812C22.0971 33.7251 22.3257 34.1882 22.7314 34.5706C23.8012 35.5722 24.9407 36.4504 26.1497 37.2053C27.3587 37.9601 28.6225 38.6571 29.9411 39.2963ZM17.1009 29.1113L20.0943 22.95C19.3644 23.003 18.7107 23.2228 18.1331 23.6092C17.5555 23.9957 17.1143 24.504 16.8096 25.1342C16.4892 25.7938 16.3555 26.4701 16.4088 27.163C16.462 27.8559 16.6927 28.5054 17.1009 29.1113ZM45.8839 43.095C46.5838 43.0274 47.2298 42.8038 47.8218 42.4244C48.4138 42.0449 48.87 41.5254 49.1904 40.8658C49.4963 40.2362 49.6155 39.5714 49.5479 38.8715C49.4803 38.1716 49.2567 37.5256 48.8773 36.9336L45.8839 43.095ZM33.437 32.1005C34.7263 32.7269 36.0447 33.2748 37.3924 33.7442C38.7401 34.2137 40.123 34.5891 41.5413 34.8705C42.1239 34.9682 42.637 34.8654 43.0808 34.5622C43.5246 34.259 43.7881 33.8311 43.8712 33.2786C43.9544 32.726 43.8481 32.2201 43.5525 31.7607C43.2568 31.3013 42.8324 31.0307 42.2793 30.9487C41.0243 30.7096 39.813 30.3805 38.6454 29.9615C37.4778 29.5424 36.3243 29.0562 35.185 28.5027C34.0456 27.9491 32.9427 27.3392 31.876 26.6727C30.8093 26.0062 29.7947 25.2539 28.8323 24.4157C28.4254 24.0328 27.9538 23.8592 27.4175 23.8952C26.8812 23.9311 26.4143 24.1675 26.0168 24.6044C25.6338 25.0112 25.4603 25.4828 25.4962 26.0191C25.5321 26.5554 25.7685 27.0223 26.2054 27.4198C27.3044 28.3614 28.455 29.2169 29.657 29.9861C30.859 30.7554 32.119 31.4602 33.437 32.1005Z" fill="url(#paint0_linear_532_38867)"/>
</g>
<defs>
<filter id="filter0_f_532_38867" x="-1.07489" y="-1.07495" width="68.1498" height="68.1499" filterUnits="userSpaceOnUse" color-interpolation-filters="sRGB">
<feFlood flood-opacity="0" result="BackgroundImageFix"/>
<feBlend mode="normal" in="SourceGraphic" in2="BackgroundImageFix" result="shape"/>
<feGaussianBlur stdDeviation="1" result="effect1_foregroundBlur_532_38867"/>
</filter>
<linearGradient id="paint0_linear_532_38867" x1="39.1179" y1="20.4074" x2="26.8822" y2="45.5925" gradientUnits="userSpaceOnUse">
<stop stop-color="white" stop-opacity="0.16"/>
<stop offset="1" stop-color="white" stop-opacity="0.2"/>
</linearGradient>
<clipPath id="clip0_532_38867">
<rect width="48" height="48" fill="white" transform="translate(21.9005 0.925049) rotate(25.9119)"/>
</clipPath>
</defs>
</svg>
