<svg width="49" height="49" viewBox="0 0 49 49" fill="none" xmlns="http://www.w3.org/2000/svg">
<g id="basil:unlock-solid">
<path id="Vector" fill-rule="evenodd" clip-rule="evenodd" d="M21.566 8.12197C20.7306 8.24344 19.9275 8.52898 19.2029 8.96214C18.4783 9.39531 17.8466 9.96754 17.3441 10.6459C16.8417 11.3242 16.4783 12.0953 16.2751 12.9146C16.0719 13.734 16.0328 14.5854 16.16 15.42L16.22 15.826C16.3 16.332 16.432 16.826 16.618 17.302L18.448 21.986C22.8266 21.6886 27.2212 21.7146 31.596 22.064L34.588 22.304C35.5286 22.3792 36.4169 22.7673 37.1111 23.4064C37.8053 24.0455 38.2654 24.8988 38.418 25.83C39.1412 30.2472 39.1412 34.7527 38.418 39.17C38.2658 40.1015 37.8059 40.9552 37.1117 41.5947C36.4174 42.2343 35.5289 42.6227 34.588 42.698L31.596 42.938C26.8715 43.315 22.1245 43.315 17.4 42.938L14.408 42.698C13.4671 42.6227 12.5786 42.2343 11.8843 41.5947C11.1901 40.9552 10.7301 40.1015 10.578 39.17C9.85478 34.7527 9.85478 30.2472 10.578 25.83C10.7298 24.8977 11.1899 24.0433 11.8845 23.4034C12.5792 22.7635 13.4684 22.3749 14.41 22.3L15.324 22.228L13.824 18.392C13.5588 17.7109 13.3696 17.0026 13.26 16.28L13.198 15.872C12.8501 13.5853 13.3575 11.2505 14.6232 9.31451C15.8889 7.37849 17.8239 5.97708 20.0581 5.37842C22.2923 4.77976 24.6689 5.02587 26.733 6.06967C28.7971 7.11347 30.4039 8.88167 31.246 11.036L31.396 11.422C31.662 12.102 31.852 12.812 31.962 13.536L32.244 15.392C32.2639 15.5219 32.258 15.6544 32.2266 15.782C32.1953 15.9096 32.1391 16.0298 32.0612 16.1356C31.9834 16.2415 31.8855 16.331 31.7731 16.399C31.6606 16.467 31.5359 16.5122 31.406 16.532L30.418 16.682C30.2881 16.7019 30.1556 16.696 30.028 16.6646C29.9004 16.6333 29.7802 16.5771 29.6743 16.4992C29.5684 16.4214 29.479 16.3235 29.4109 16.211C29.3429 16.0986 29.2978 15.9739 29.278 15.844L28.998 13.988C28.9209 13.4829 28.7881 12.9878 28.602 12.512L28.452 12.128C27.9257 10.781 26.9587 9.65193 25.7086 8.92483C24.4585 8.19773 22.999 7.91544 21.568 8.12397L21.566 8.12197ZM24.5 29.5C23.7043 29.5 22.9413 29.816 22.3787 30.3787C21.8161 30.9413 21.5 31.7043 21.5 32.5C21.5 33.2956 21.8161 34.0587 22.3787 34.6213C22.9413 35.1839 23.7043 35.5 24.5 35.5C25.2956 35.5 26.0587 35.1839 26.6213 34.6213C27.1839 34.0587 27.5 33.2956 27.5 32.5C27.5 31.7043 27.1839 30.9413 26.6213 30.3787C26.0587 29.816 25.2956 29.5 24.5 29.5Z" fill="url(#paint0_linear_544_25946)"/>
</g>
<defs>
<linearGradient id="paint0_linear_544_25946" x1="5.83283" y1="20.5728" x2="59.8153" y2="16.9141" gradientUnits="userSpaceOnUse">
<stop offset="0.0025491" stop-color="#57E9A9"/>
<stop offset="1" stop-color="#40A8D0"/>
</linearGradient>
</defs>
</svg>
