<svg width="48" height="49" viewBox="0 0 48 49" fill="none" xmlns="http://www.w3.org/2000/svg">
<g id="healthicons:stock-out">
<g id="Group">
<path id="Vector" d="M27.707 6.79296C27.8945 6.98049 27.9998 7.23479 27.9998 7.49996C27.9998 7.76512 27.8945 8.01943 27.707 8.20696L25.414 10.5L27.707 12.793C27.8892 12.9816 27.99 13.2342 27.9877 13.4964C27.9854 13.7586 27.8802 14.0094 27.6948 14.1948C27.5094 14.3802 27.2586 14.4854 26.9964 14.4876C26.7342 14.4899 26.4816 14.3891 26.293 14.207L24 11.914L21.707 14.207C21.6141 14.2998 21.5038 14.3734 21.3824 14.4237C21.2611 14.4739 21.131 14.4997 20.9996 14.4997C20.8683 14.4996 20.7382 14.4737 20.6169 14.4234C20.4956 14.3731 20.3853 14.2994 20.2925 14.2065C20.1997 14.1135 20.126 14.0033 20.0758 13.8819C20.0256 13.7605 19.9998 13.6305 19.9998 13.4991C19.9998 13.3678 20.0258 13.2377 20.0761 13.1164C20.1264 12.995 20.2001 12.8848 20.293 12.792L22.586 10.5L20.293 8.20696C20.2002 8.11405 20.1265 8.00376 20.0763 7.88239C20.0261 7.76103 20.0003 7.63095 20.0003 7.49961C20.0003 7.36826 20.0263 7.2382 20.0766 7.11687C20.1269 6.99554 20.2006 6.8853 20.2935 6.79246C20.3864 6.69961 20.4967 6.62598 20.6181 6.57576C20.7394 6.52553 20.8695 6.49971 21.0009 6.49976C21.1322 6.4998 21.2623 6.52572 21.3836 6.57603C21.5049 6.62633 21.6152 6.70005 21.708 6.79296L24 9.08596L26.293 6.79296C26.4805 6.60549 26.7348 6.50017 27 6.50017C27.2652 6.50017 27.5195 6.60549 27.707 6.79296ZM19.198 33.228C19.8675 33.4511 20.5889 33.4666 21.2674 33.2724C21.9459 33.0782 22.5498 32.6835 23 32.14V42.523L11 38V30.496L19.198 33.228Z" fill="url(#paint0_linear_544_25938)"/>
<path id="Vector_2" fill-rule="evenodd" clip-rule="evenodd" d="M37 38L25 42.523V32.14C25.4502 32.6835 26.0541 33.0782 26.7326 33.2724C27.4111 33.4666 28.1325 33.4511 28.802 33.228L37 30.496V38ZM24.327 15.555C24.1152 15.4817 23.8848 15.4817 23.673 15.555L10.675 20.055L10.652 20.062C10.4771 20.1268 10.324 20.2394 10.21 20.387L6.22 25.375C6.11922 25.5007 6.05033 25.649 6.01919 25.8071C5.98805 25.9652 5.99558 26.1285 6.04115 26.2831C6.08672 26.4377 6.16897 26.5789 6.2809 26.6949C6.39283 26.8108 6.53112 26.898 6.684 26.949L20.184 31.449C20.3884 31.5169 20.6094 31.517 20.8139 31.4493C21.0184 31.3815 21.1956 31.2495 21.319 31.073L24 27.243L26.68 31.073C26.8035 31.2498 26.9808 31.3819 27.1856 31.4496C27.3903 31.5174 27.6114 31.5172 27.816 31.449L41.316 26.949C41.469 26.8981 41.6074 26.811 41.7194 26.6951C41.8314 26.5792 41.9138 26.438 41.9595 26.2834C42.0051 26.1288 42.0128 25.9655 41.9817 25.8073C41.9506 25.6491 41.8818 25.5008 41.781 25.375L37.791 20.387C37.6717 20.2327 37.5096 20.1169 37.325 20.054L24.327 15.555ZM24 24.442L33.943 21L24 17.558L14.057 21L24 24.442Z" fill="url(#paint1_linear_544_25938)"/>
</g>
</g>
<defs>
<linearGradient id="paint0_linear_544_25938" x1="8.52995" y1="21.1447" x2="40.3458" y2="19.8021" gradientUnits="userSpaceOnUse">
<stop offset="0.0025491" stop-color="#57E9A9"/>
<stop offset="1" stop-color="#40A8D0"/>
</linearGradient>
<linearGradient id="paint1_linear_544_25938" x1="0.769555" y1="26.486" x2="67.3207" y2="18.5578" gradientUnits="userSpaceOnUse">
<stop offset="0.0025491" stop-color="#57E9A9"/>
<stop offset="1" stop-color="#40A8D0"/>
</linearGradient>
</defs>
</svg>
