<svg width="33" height="33" viewBox="0 0 33 33" fill="none" xmlns="http://www.w3.org/2000/svg">
<g id="ph:tote-fill">
<path id="Vector" d="M30 9.175C29.8103 8.96212 29.5777 8.79189 29.3174 8.67554C29.0571 8.55918 28.7751 8.49935 28.49 8.5H22.5C22.5 6.9087 21.8678 5.38258 20.7426 4.25736C19.6174 3.13214 18.0913 2.5 16.5 2.5C14.9087 2.5 13.3825 3.13214 12.2573 4.25736C11.1321 5.38258 10.5 6.9087 10.5 8.5H4.50997C4.22655 8.50076 3.94647 8.56127 3.68801 8.67758C3.42955 8.79389 3.19851 8.96338 3.00997 9.175C2.82301 9.38583 2.6827 9.6338 2.59826 9.90264C2.51382 10.1715 2.48714 10.4551 2.51997 10.735L4.30247 25.735C4.36028 26.2237 4.59626 26.674 4.96525 26.9996C5.33425 27.3253 5.81035 27.5034 6.30247 27.5H26.7087C27.2008 27.5034 27.6769 27.3253 28.0459 26.9996C28.4149 26.674 28.6509 26.2237 28.7087 25.735L30.4912 10.735C30.5239 10.455 30.497 10.1713 30.4123 9.90249C30.3277 9.63364 30.1872 9.38573 30 9.175ZM12.5 13.5C12.5 13.7652 12.3946 14.0196 12.2071 14.2071C12.0195 14.3946 11.7652 14.5 11.5 14.5C11.2348 14.5 10.9804 14.3946 10.7929 14.2071C10.6053 14.0196 10.5 13.7652 10.5 13.5V11.5C10.5 11.2348 10.6053 10.9804 10.7929 10.7929C10.9804 10.6054 11.2348 10.5 11.5 10.5C11.7652 10.5 12.0195 10.6054 12.2071 10.7929C12.3946 10.9804 12.5 11.2348 12.5 11.5V13.5ZM16.5 4.5C17.5608 4.5 18.5782 4.92143 19.3284 5.67157C20.0785 6.42172 20.5 7.43913 20.5 8.5H12.5C12.5 7.43913 12.9214 6.42172 13.6715 5.67157C14.4217 4.92143 15.4391 4.5 16.5 4.5ZM22.5 13.5C22.5 13.7652 22.3946 14.0196 22.2071 14.2071C22.0195 14.3946 21.7652 14.5 21.5 14.5C21.2348 14.5 20.9804 14.3946 20.7929 14.2071C20.6053 14.0196 20.5 13.7652 20.5 13.5V11.5C20.5 11.2348 20.6053 10.9804 20.7929 10.7929C20.9804 10.6054 21.2348 10.5 21.5 10.5C21.7652 10.5 22.0195 10.6054 22.2071 10.7929C22.3946 10.9804 22.5 11.2348 22.5 11.5V13.5Z" fill="url(#paint0_linear_616_26089)"/>
</g>
<defs>
<linearGradient id="paint0_linear_616_26089" x1="-1.56179" y1="12.6636" x2="50.4103" y2="7.45869" gradientUnits="userSpaceOnUse">
<stop offset="0.0025491" stop-color="#57E9A9"/>
<stop offset="1" stop-color="#40A8D0"/>
</linearGradient>
</defs>
</svg>
