<svg width="35" height="35" viewBox="0 0 35 35" fill="none" xmlns="http://www.w3.org/2000/svg">
<g id="Group">
<path id="Vector" fill-rule="evenodd" clip-rule="evenodd" d="M14.5217 0.210847C15.2682 -0.0130964 16.0568 -0.0594228 16.8244 0.0755661C17.592 0.210555 18.3174 0.523121 18.9427 0.988313C19.5681 1.45351 20.076 2.05844 20.4259 2.75484C20.7759 3.45123 20.9582 4.21979 20.9584 4.99918V29.3725C20.9582 30.1519 20.7759 30.9205 20.4259 31.6169C20.076 32.3132 19.5681 32.9182 18.9427 33.3834C18.3174 33.8486 17.592 34.1611 16.8244 34.2961C16.0568 34.4311 15.2682 34.3848 14.5217 34.1608L4.52171 31.1608C3.49188 30.8519 2.58906 30.2192 1.94718 29.3567C1.3053 28.4942 0.95855 27.4477 0.958374 26.3725V7.99918C0.95855 6.92401 1.3053 5.87753 1.94718 5.01499C2.58906 4.15244 3.49188 3.51978 4.52171 3.21085L14.5217 0.210847ZM22.625 3.85251C22.625 3.41049 22.8006 2.98656 23.1132 2.674C23.4258 2.36144 23.8497 2.18585 24.2917 2.18585H29.2917C30.6178 2.18585 31.8896 2.71263 32.8272 3.65031C33.7649 4.588 34.2917 5.85976 34.2917 7.18585V8.85251C34.2917 9.29454 34.1161 9.71846 33.8036 10.031C33.491 10.3436 33.0671 10.5192 32.625 10.5192C32.183 10.5192 31.7591 10.3436 31.4465 10.031C31.134 9.71846 30.9584 9.29454 30.9584 8.85251V7.18585C30.9584 6.74382 30.7828 6.3199 30.4702 6.00734C30.1577 5.69478 29.7337 5.51918 29.2917 5.51918H24.2917C23.8497 5.51918 23.4258 5.34359 23.1132 5.03102C22.8006 4.71846 22.625 4.29454 22.625 3.85251ZM32.625 23.8525C33.0671 23.8525 33.491 24.0281 33.8036 24.3407C34.1161 24.6532 34.2917 25.0772 34.2917 25.5192V27.1858C34.2917 28.5119 33.7649 29.7837 32.8272 30.7214C31.8896 31.6591 30.6178 32.1858 29.2917 32.1858H24.2917C23.8497 32.1858 23.4258 32.0103 23.1132 31.6977C22.8006 31.3851 22.625 30.9612 22.625 30.5192C22.625 30.0772 22.8006 29.6532 23.1132 29.3407C23.4258 29.0281 23.8497 28.8525 24.2917 28.8525H29.2917C29.7337 28.8525 30.1577 28.6769 30.4702 28.3644C30.7828 28.0518 30.9584 27.6279 30.9584 27.1858V25.5192C30.9584 25.0772 31.134 24.6532 31.4465 24.3407C31.7591 24.0281 32.183 23.8525 32.625 23.8525ZM12.625 15.5192C12.183 15.5192 11.7591 15.6948 11.4465 16.0073C11.134 16.3199 10.9584 16.7438 10.9584 17.1858C10.9584 17.6279 11.134 18.0518 11.4465 18.3644C11.7591 18.6769 12.183 18.8525 12.625 18.8525H12.6267C13.0687 18.8525 13.4927 18.6769 13.8052 18.3644C14.1178 18.0518 14.2934 17.6279 14.2934 17.1858C14.2934 16.7438 14.1178 16.3199 13.8052 16.0073C13.4927 15.6948 13.0687 15.5192 12.6267 15.5192H12.625Z" fill="#F43F5E"/>
<path id="Vector_2" d="M24.2917 17.1859H32.625M32.625 17.1859L29.2917 13.8525M32.625 17.1859L29.2917 20.5192" stroke="#F43F5E" stroke-width="2" stroke-linecap="round" stroke-linejoin="round"/>
</g>
</svg>
