<svg width="25" height="32" viewBox="0 0 25 32" fill="none" xmlns="http://www.w3.org/2000/svg">
<path id="Vector" fill-rule="evenodd" clip-rule="evenodd" d="M10.463 2.55322C9.76682 2.65445 9.09756 2.8924 8.49375 3.25337C7.88994 3.61434 7.36351 4.0912 6.94477 4.65648C6.52604 5.22177 6.22327 5.86431 6.05391 6.5471C5.88456 7.22989 5.85195 7.93944 5.95798 8.63489L6.00798 8.97322C6.07465 9.39489 6.18465 9.80656 6.33965 10.2032L7.86465 14.1066C11.5135 13.8587 15.1757 13.8805 18.8213 14.1716L21.3146 14.3716C22.0985 14.4342 22.8387 14.7577 23.4173 15.2903C23.9958 15.8229 24.3792 16.5339 24.5063 17.3099C25.109 20.9909 25.109 24.7455 24.5063 28.4266C24.3795 29.2029 23.9963 29.9143 23.4177 30.4472C22.8392 30.9801 22.0987 31.3038 21.3146 31.3666L18.8213 31.5666C14.8842 31.8807 10.9284 31.8807 6.99131 31.5666L4.49798 31.3666C3.7139 31.3038 2.97346 30.9801 2.39492 30.4472C1.81638 29.9143 1.4331 29.2029 1.30631 28.4266C0.703641 24.7455 0.703641 20.9909 1.30631 17.3099C1.43284 16.533 1.81621 15.821 2.39511 15.2877C2.97402 14.7545 3.71503 14.4307 4.49965 14.3682L5.26131 14.3082L4.01131 11.1116C3.79029 10.544 3.63266 9.95375 3.54131 9.35156L3.48965 9.01156C3.19973 7.10596 3.62258 5.16036 4.67731 3.54701C5.73204 1.93365 7.34458 0.765816 9.20643 0.26693C11.0683 -0.231956 13.0487 -0.0268635 14.7688 0.84297C16.4889 1.7128 17.8279 3.1863 18.5296 4.98156L18.6546 5.30322C18.8763 5.86989 19.0346 6.46156 19.1263 7.06489L19.3613 8.61156C19.3779 8.71979 19.373 8.83024 19.3468 8.93657C19.3207 9.04291 19.2739 9.14305 19.209 9.23128C19.1442 9.31951 19.0626 9.39409 18.9689 9.45076C18.8752 9.50743 18.7712 9.54508 18.663 9.56156L17.8396 9.68656C17.7314 9.70313 17.621 9.69822 17.5146 9.67208C17.4083 9.64596 17.3081 9.59912 17.2199 9.53427C17.1317 9.46941 17.0571 9.38781 17.0004 9.29411C16.9438 9.20042 16.9061 9.09648 16.8896 8.98822L16.6563 7.44156C16.5921 7.02063 16.4814 6.60811 16.3263 6.21156L16.2013 5.89156C15.7627 4.76906 14.9569 3.82818 13.9152 3.22227C12.8734 2.61635 11.6572 2.38111 10.4646 2.55489L10.463 2.55322ZM12.908 20.3682C12.2449 20.3682 11.6091 20.6316 11.1402 21.1005C10.6714 21.5693 10.408 22.2052 10.408 22.8682C10.408 23.5313 10.6714 24.1671 11.1402 24.636C11.6091 25.1048 12.2449 25.3682 12.908 25.3682C13.571 25.3682 14.2069 25.1048 14.6757 24.636C15.1446 24.1671 15.408 23.5313 15.408 22.8682C15.408 22.2052 15.1446 21.5693 14.6757 21.1005C14.2069 20.6316 13.571 20.3682 12.908 20.3682Z" fill="#F59E0B"/>
</svg>
