<svg width="38" height="18" viewBox="0 0 38 18" fill="none" xmlns="http://www.w3.org/2000/svg">
<path id="Vector" d="M9.57197 10.6079C9.33572 10.2233 9.1255 9.81866 8.85922 9.45609C7.76408 7.96778 6.37662 7.9077 5.1193 9.25178C5.00518 9.37397 4.71688 9.392 4.51667 9.36996C3.54566 9.26981 2.57864 9.12959 1.60763 9.02943C1.39941 9.0074 1.17317 9.0695 0.966953 9.1336C0.36232 9.32189 -0.00205612 9.80264 -5.72205e-05 10.3755C0.0019455 10.9624 0.396358 11.5634 1.01701 11.6255C2.25631 11.7477 3.36747 12.2064 4.48864 12.6831C5.22341 12.9936 5.95017 12.8193 6.70296 12.3706C6.84311 12.8474 6.97324 13.272 7.08937 13.7007C7.27356 14.3857 7.41772 15.0828 7.63194 15.7559C7.89822 16.5912 8.43678 17.1881 9.34573 17.3243C10.2527 17.4605 10.9955 17.0739 11.4379 16.3268C11.9905 15.3953 12.5371 14.4258 12.8614 13.4022C13.3439 11.8819 13.6302 10.2994 13.9966 8.74098C14.0567 8.48258 14.0967 8.21817 14.1448 7.95577C14.1908 7.95376 14.2349 7.94976 14.2809 7.94776C14.4331 8.64284 14.5892 9.33591 14.7374 10.031C15.0317 11.3991 15.32 12.7692 15.6183 14.1374C15.6724 14.3857 15.7484 14.6301 15.8325 14.8705C16.1228 15.7038 16.6414 16.3047 17.5603 16.4129C18.4553 16.5171 19.098 16.0724 19.5644 15.3493C20.5615 13.8089 21.2422 12.1283 21.7447 10.3675C21.7988 10.1792 21.8588 9.99293 21.9549 9.67644C22.1071 9.93084 22.1992 10.0911 22.2973 10.2493C22.7137 10.9104 23.0801 11.6094 23.5606 12.2224C24.6538 13.6186 26.0873 13.7287 27.2785 12.4147C27.8791 11.7517 28.4437 11.6635 29.2326 11.8418C31.4229 12.3366 33.6472 12.5489 35.8935 12.5088C36.29 12.5008 36.6964 12.4568 37.0748 12.3486C37.6013 12.1984 37.8856 11.7436 37.8256 11.2849C37.7635 10.8022 37.4171 10.5438 36.8005 10.5178C34.5321 10.4176 32.2517 10.4156 30.0374 9.80264C29.599 9.68245 29.1685 9.53823 28.734 9.40402C27.699 9.08352 26.798 9.29384 26.0332 10.071C25.9071 10.1992 25.7709 10.3174 25.5567 10.5197C25.2504 9.98491 24.92 9.51019 24.6958 8.98938C24.3014 8.07195 23.9831 7.12047 23.6147 6.19103C23.4545 5.7864 23.2923 5.37175 23.0561 5.01119C22.2092 3.71919 20.5655 3.6651 19.6866 4.93507C19.3342 5.44587 19.118 6.06884 18.9258 6.66977C18.6315 7.5872 18.4112 8.52665 18.155 9.45609C18.1089 9.62035 18.0428 9.78061 17.8607 9.94085C17.6985 9.14762 17.5503 8.35239 17.3741 7.56316C17.0898 6.28518 16.8476 4.99317 16.4672 3.74323C16.245 3.0101 15.8966 2.26693 15.4261 1.668C14.1708 0.0635121 12.0826 0.402049 11.472 2.34306C11.0435 3.70518 10.8833 5.14941 10.591 6.55559C10.3107 7.90369 10.0144 9.24977 9.72613 10.5959C9.67408 10.6039 9.62202 10.6059 9.57197 10.6079Z" fill="#F0FFF8"/>
</svg>
