<svg width="25" height="21" viewBox="0 0 25 21" fill="none" xmlns="http://www.w3.org/2000/svg">
<path id="Vector" d="M18.1532 0.5C19.036 0.5 19.8641 0.664062 20.6376 0.992188C21.411 1.32031 22.0829 1.77344 22.6532 2.35156C23.2235 2.92969 23.6766 3.60547 24.0126 4.37891C24.3485 5.15234 24.5165 5.98047 24.5165 6.86328C24.5165 7.31641 24.4696 7.76562 24.3759 8.21094C24.3711 8.23352 24.3662 8.25607 24.3612 8.27857C24.191 9.04523 23.4495 9.5 22.6641 9.5H19.3806C18.836 9.5 18.315 9.27792 17.9379 8.88506L17.6918 8.62877C16.9158 7.82043 15.6272 7.80728 14.8348 8.59962L13.9424 9.49204C13.1614 10.2731 11.895 10.2731 11.114 9.49204L8.70998 7.08803C7.9221 6.30016 6.64229 6.30805 5.8642 7.1056L4.11684 8.89665C3.74044 9.28245 3.22426 9.5 2.68527 9.5H2.39226C1.60694 9.5 0.86536 9.04523 0.695168 8.27857C0.690172 8.25607 0.685297 8.23352 0.680542 8.21094C0.586792 7.76562 0.539917 7.31641 0.539917 6.86328C0.539917 5.98047 0.703979 5.15234 1.0321 4.37891C1.36023 3.60547 1.81335 2.93359 2.39148 2.36328C2.9696 1.79297 3.64539 1.33984 4.41882 1.00391C5.19226 0.667969 6.02039 0.5 6.9032 0.5C7.75476 0.5 8.56726 0.660156 9.3407 0.980469C10.1141 1.30078 10.8055 1.76172 11.4149 2.36328C12.0279 2.98269 13.0285 2.98269 13.6415 2.36328C14.243 1.76172 14.9305 1.30078 15.704 0.980469C16.4774 0.660156 17.2938 0.5 18.1532 0.5ZM16.8133 10.812C16.9518 10.9332 17.1297 11 17.3138 11H22.7556C22.8527 11 22.9047 11.1144 22.8407 11.1875C22.786 11.25 22.7274 11.3164 22.6649 11.3867L13.9416 20.1C13.1607 20.8799 11.8957 20.8799 11.1148 20.1L2.39148 11.3867C2.32898 11.3242 2.27039 11.2617 2.2157 11.1992C2.14652 11.1202 2.2047 11 2.30975 11H4.53933C4.85305 11 5.15465 10.8788 5.38116 10.6617L5.86462 10.1984C6.65013 9.44565 7.89332 9.45887 8.66264 10.2282L11.114 12.6795C11.895 13.4606 13.1614 13.4606 13.9424 12.6795L15.7754 10.8465C16.0584 10.5636 16.5122 10.5485 16.8133 10.812Z" fill="white"/>
</svg>
