<svg width="49" height="49" viewBox="0 0 49 49" fill="none" xmlns="http://www.w3.org/2000/svg">
<g id="ph:lightning-fill">
<path id="Vector" d="M40.5969 24.0238L19.5969 46.5238C19.3743 46.7613 19.0806 46.92 18.76 46.9759C18.4393 47.0318 18.1092 46.9819 17.8194 46.8337C17.5297 46.6855 17.2959 46.4471 17.1535 46.1544C17.0111 45.8618 16.9678 45.5308 17.03 45.2113L19.7788 31.4619L8.97313 27.4044C8.74107 27.3176 8.53412 27.1747 8.37078 26.9884C8.20743 26.8021 8.09278 26.5782 8.03707 26.3368C7.98136 26.0954 7.98632 25.8439 8.0515 25.6048C8.11669 25.3658 8.24007 25.1466 8.41063 24.9669L29.4106 2.46691C29.6332 2.22942 29.9269 2.07075 30.2476 2.01485C30.5682 1.95895 30.8983 2.00885 31.1881 2.15702C31.4779 2.30519 31.7116 2.54359 31.854 2.83626C31.9964 3.12892 32.0398 3.45995 31.9775 3.77941L29.2213 17.5438L40.0269 21.5957C40.2572 21.6831 40.4625 21.8258 40.6246 22.0114C40.7867 22.197 40.9005 22.4196 40.9561 22.6596C41.0117 22.8996 41.0074 23.1496 40.9434 23.3876C40.8794 23.6255 40.7578 23.844 40.5894 24.0238H40.5969Z" fill="url(#paint0_linear_895_30185)"/>
</g>
<defs>
<linearGradient id="paint0_linear_895_30185" x1="3.20434" y1="20.2892" x2="64.8033" y2="16.2507" gradientUnits="userSpaceOnUse">
<stop offset="0.0025491" stop-color="#57E9A9"/>
<stop offset="1" stop-color="#40A8D0"/>
</linearGradient>
</defs>
</svg>
