<svg width="17" height="22" viewBox="0 0 17 22" fill="none" xmlns="http://www.w3.org/2000/svg">
<path id="Vector" fill-rule="evenodd" clip-rule="evenodd" d="M6.86426 1.91032C6.39019 1.97925 5.93445 2.14128 5.52327 2.3871C5.11208 2.63291 4.7536 2.95764 4.46845 3.34259C4.1833 3.72753 3.97712 4.16509 3.86179 4.63005C3.74646 5.09502 3.72426 5.57821 3.79646 6.05179L3.83051 6.28219C3.87591 6.56933 3.95082 6.84967 4.05637 7.11979L5.09486 9.77787C7.57964 9.6091 10.0735 9.6239 12.5561 9.82213L14.254 9.95833C14.7878 10.001 15.2919 10.2213 15.6858 10.5839C16.0798 10.9466 16.3409 11.4308 16.4274 11.9593C16.8379 14.466 16.8379 17.0227 16.4274 19.5295C16.3411 20.0581 16.0801 20.5426 15.6861 20.9055C15.2922 21.2684 14.7879 21.4888 14.254 21.5315L12.5561 21.6677C9.87504 21.8817 7.1812 21.8817 4.50014 21.6677L2.80224 21.5315C2.2683 21.4888 1.76408 21.2684 1.3701 20.9055C0.976129 20.5426 0.715129 20.0581 0.628788 19.5295C0.218383 17.0227 0.218383 14.466 0.628788 11.9593C0.714949 11.4302 0.976014 10.9454 1.37024 10.5822C1.76446 10.2191 2.26907 9.9986 2.80337 9.95606L3.32205 9.9152L2.47083 7.73834C2.32032 7.35185 2.21298 6.9499 2.15077 6.53982L2.11559 6.30829C1.91816 5.01062 2.20611 3.68572 2.92436 2.58706C3.6426 1.4884 4.74071 0.693134 6.00858 0.353404C7.27646 0.013674 8.62508 0.153337 9.79643 0.745674C10.9678 1.33801 11.8796 2.34143 12.3575 3.56396L12.4426 3.783C12.5935 4.16889 12.7014 4.5718 12.7638 4.98266L12.9238 6.0359C12.9351 6.10961 12.9318 6.18482 12.914 6.25723C12.8962 6.32964 12.8643 6.39784 12.8201 6.45792C12.776 6.518 12.7204 6.56879 12.6566 6.60738C12.5928 6.64597 12.522 6.67161 12.4483 6.68283L11.8876 6.76795C11.8139 6.77924 11.7387 6.77589 11.6663 6.7581C11.5939 6.7403 11.5257 6.70841 11.4656 6.66425C11.4055 6.62008 11.3547 6.56451 11.3161 6.50071C11.2775 6.4369 11.2519 6.36612 11.2407 6.2924L11.0818 5.23916C11.038 4.95252 10.9627 4.6716 10.8571 4.40156L10.7719 4.18364C10.4733 3.41925 9.92453 2.77854 9.21513 2.36592C8.50573 1.95331 7.67749 1.79311 6.8654 1.91145L6.86426 1.91032ZM8.52925 14.0419C8.07774 14.0419 7.64471 14.2213 7.32544 14.5405C7.00617 14.8598 6.82681 15.2928 6.82681 15.7444C6.82681 16.1959 7.00617 16.6289 7.32544 16.9482C7.64471 17.2674 8.07774 17.4468 8.52925 17.4468C8.98077 17.4468 9.41379 17.2674 9.73306 16.9482C10.0523 16.6289 10.2317 16.1959 10.2317 15.7444C10.2317 15.2928 10.0523 14.8598 9.73306 14.5405C9.41379 14.2213 8.98077 14.0419 8.52925 14.0419Z" fill="white"/>
</svg>
