<svg width="31" height="35" viewBox="0 0 31 35" fill="none" xmlns="http://www.w3.org/2000/svg">
<path id="Vector" fill-rule="evenodd" clip-rule="evenodd" d="M9.17722 7.94167V6.25C9.17722 4.5924 9.8357 3.00268 11.0078 1.83058C12.1799 0.65848 13.7696 0 15.4272 0C17.0848 0 18.6745 0.65848 19.8466 1.83058C21.0187 3.00268 21.6772 4.5924 21.6772 6.25V7.94167C23.8222 8.00667 25.1356 8.23667 26.1372 9.06833C27.5256 10.2217 27.8922 12.1717 28.6239 16.0733L29.8739 22.74C30.9022 28.2267 31.4156 30.97 29.9172 32.7767C28.4172 34.5833 25.6256 34.5833 20.0439 34.5833H10.8106C5.22722 34.5833 2.43722 34.5833 0.937225 32.7767C-0.562775 30.97 -0.0461085 28.2267 0.980558 22.74L2.23056 16.0733C2.96389 12.1733 3.32889 10.2217 4.71722 9.06833C5.71889 8.23667 7.03222 8.00667 9.17722 7.94167ZM11.6772 6.25C11.6772 5.25544 12.0723 4.30161 12.7756 3.59835C13.4788 2.89509 14.4327 2.5 15.4272 2.5C16.4218 2.5 17.3756 2.89509 18.0789 3.59835C18.7821 4.30161 19.1772 5.25544 19.1772 6.25V7.91667H11.6772V6.25ZM21.6606 16.045C21.6336 15.883 21.5751 15.728 21.4882 15.5886C21.4014 15.4493 21.2879 15.3284 21.1544 15.2329C21.0208 15.1375 20.8697 15.0692 20.7098 15.0321C20.5499 14.995 20.3842 14.9897 20.2222 15.0167C20.0603 15.0436 19.9052 15.1021 19.7659 15.189C19.6265 15.2759 19.5057 15.3893 19.4102 15.5229C19.3147 15.6564 19.2464 15.8075 19.2093 15.9674C19.1722 16.1274 19.167 16.293 19.1939 16.455L20.8606 26.455C20.8875 26.617 20.946 26.772 21.0329 26.9114C21.1197 27.0507 21.2332 27.1716 21.3668 27.2671C21.5003 27.3625 21.6514 27.4308 21.8113 27.4679C21.9712 27.505 22.1369 27.5103 22.2989 27.4833C22.4609 27.4564 22.6159 27.3979 22.7553 27.311C22.8946 27.2241 23.0155 27.1107 23.1109 26.9771C23.2064 26.8436 23.2747 26.6925 23.3118 26.5326C23.3489 26.3726 23.3541 26.207 23.3272 26.045L21.6606 16.045ZM10.6322 15.0167C10.4703 14.9897 10.3046 14.9949 10.1446 15.032C9.98467 15.0691 9.83359 15.1374 9.70002 15.2329C9.56645 15.3284 9.45301 15.4492 9.36616 15.5886C9.27932 15.7279 9.22078 15.883 9.19389 16.045L7.52723 26.045C7.5003 26.207 7.50555 26.3726 7.54266 26.5326C7.57977 26.6925 7.64801 26.8436 7.7435 26.9771C7.83899 27.1107 7.95985 27.2241 8.09919 27.311C8.23852 27.3979 8.39359 27.4564 8.55556 27.4833C8.71752 27.5103 8.8832 27.505 9.04314 27.4679C9.20308 27.4308 9.35414 27.3625 9.4877 27.2671C9.62126 27.1716 9.73471 27.0507 9.82156 26.9114C9.90841 26.772 9.96697 26.617 9.99389 26.455L11.6606 16.455C11.6875 16.293 11.6823 16.1273 11.6452 15.9674C11.6081 15.8074 11.5399 15.6564 11.4444 15.5228C11.3489 15.3892 11.228 15.2758 11.0886 15.1889C10.9493 15.1021 10.7942 15.0436 10.6322 15.0167Z" fill="#10B981"/>
</svg>
