<svg width="49" height="49" viewBox="0 0 49 49" fill="none" xmlns="http://www.w3.org/2000/svg">
<g id="ph:tote-fill">
<path id="Vector" d="M44.75 13.5125C44.4655 13.1932 44.1165 12.9378 43.7261 12.7633C43.3357 12.5888 42.9127 12.499 42.485 12.5H33.5C33.5 10.1131 32.5518 7.82387 30.864 6.13604C29.1761 4.44821 26.887 3.5 24.5 3.5C22.1131 3.5 19.8239 4.44821 18.1361 6.13604C16.4482 7.82387 15.5 10.1131 15.5 12.5H6.51502C6.08988 12.5011 5.66976 12.5919 5.28207 12.7664C4.89438 12.9408 4.54782 13.1951 4.26502 13.5125C3.98457 13.8287 3.77412 14.2007 3.64745 14.604C3.52079 15.0072 3.48077 15.4327 3.53002 15.8525L6.20377 38.3525C6.29049 39.0856 6.64445 39.761 7.19794 40.2494C7.75143 40.7379 8.46558 41.0051 9.20376 41H39.8131C40.5513 41.0051 41.2655 40.7379 41.819 40.2494C42.3724 39.761 42.7264 39.0856 42.8131 38.3525L45.4869 15.8525C45.5359 15.4326 45.4956 15.007 45.3686 14.6037C45.2416 14.2005 45.0308 13.8286 44.75 13.5125ZM18.5 20C18.5 20.3978 18.342 20.7794 18.0607 21.0607C17.7794 21.342 17.3978 21.5 17 21.5C16.6022 21.5 16.2207 21.342 15.9394 21.0607C15.658 20.7794 15.5 20.3978 15.5 20V17C15.5 16.6022 15.658 16.2206 15.9394 15.9393C16.2207 15.658 16.6022 15.5 17 15.5C17.3978 15.5 17.7794 15.658 18.0607 15.9393C18.342 16.2206 18.5 16.6022 18.5 17V20ZM24.5 6.5C26.0913 6.5 27.6174 7.13214 28.7427 8.25736C29.8679 9.38258 30.5 10.9087 30.5 12.5H18.5C18.5 10.9087 19.1322 9.38258 20.2574 8.25736C21.3826 7.13214 22.9087 6.5 24.5 6.5ZM33.5 20C33.5 20.3978 33.342 20.7794 33.0607 21.0607C32.7794 21.342 32.3978 21.5 32 21.5C31.6022 21.5 31.2207 21.342 30.9394 21.0607C30.658 20.7794 30.5 20.3978 30.5 20V17C30.5 16.6022 30.658 16.2206 30.9394 15.9393C31.2207 15.658 31.6022 15.5 32 15.5C32.3978 15.5 32.7794 15.658 33.0607 15.9393C33.342 16.2206 33.5 16.6022 33.5 17V20Z" fill="url(#paint0_linear_544_25952)"/>
</g>
<defs>
<linearGradient id="paint0_linear_544_25952" x1="-2.59262" y1="18.7454" x2="75.3656" y2="10.938" gradientUnits="userSpaceOnUse">
<stop offset="0.0025491" stop-color="#57E9A9"/>
<stop offset="1" stop-color="#40A8D0"/>
</linearGradient>
</defs>
</svg>
