<svg width="33" height="33" viewBox="0 0 33 33" fill="none" xmlns="http://www.w3.org/2000/svg">
<g id="game-icons:pay-money">
<path id="Vector" d="M19.1812 2.01941C18.2499 2.03816 17.5812 2.21941 17.1374 2.54441L11.0562 5.80066L7.67494 10.4C6.96244 11.5 7.46869 13.625 9.69369 12.2625L12.1312 9.05004C15.2249 6.38191 21.5374 7.60628 18.5437 12.9625C17.0749 16.0625 17.7624 17.575 19.6562 18.2125L20.5187 15.3125C22.0124 11.95 24.7999 11.3438 24.6874 8.63129L31.3874 9.11254L31.3249 2.10691L19.1812 2.01941ZM15.7999 8.48129C14.7124 8.46253 13.6437 8.91254 12.8687 9.56254L10.4249 12.775C11.0937 13.3063 11.7687 13.0188 12.4374 12.375C13.2249 12.775 13.8374 12.1563 14.3374 10.9188C14.5437 10.075 14.8499 9.48129 15.7999 8.48129ZM10.8249 14.4813C10.7999 14.4813 10.7687 14.4813 10.7437 14.4875C10.5374 14.5313 10.2937 14.75 10.1312 15.25C9.96244 15.75 9.92494 16.4625 10.0749 17.225C10.2249 17.9813 10.5374 18.625 10.8874 19.025C11.2249 19.4188 11.5374 19.5313 11.7437 19.4875C11.9562 19.45 12.1937 19.225 12.3562 18.7313C12.5249 18.2313 12.5687 17.5125 12.4187 16.7563C12.2624 15.9938 11.9499 15.35 11.6062 14.9563C11.3062 14.6063 11.0312 14.4813 10.8249 14.4813ZM15.9874 21.1563C15.4937 21.1625 14.8749 21.3188 14.2687 21.6125C13.5749 21.9563 13.0312 22.4313 12.7374 22.8688C12.4437 23.3 12.4187 23.625 12.5124 23.8188C12.6062 24.0063 12.8812 24.1875 13.4062 24.2125C13.9312 24.2438 14.6374 24.1 15.3312 23.7563C16.0249 23.4125 16.5687 22.9438 16.8624 22.5063C17.1562 22.075 17.1812 21.7438 17.0874 21.5563C16.9937 21.3625 16.7187 21.1875 16.1937 21.1625C16.1249 21.1563 16.0624 21.1563 15.9874 21.1563ZM9.88744 27.1313C9.59369 27.1375 9.32494 27.1813 9.08744 27.25C8.55619 27.4063 8.24994 27.6875 8.14994 28.0188C8.04369 28.3563 8.14994 28.7563 8.50619 29.1875C8.86869 29.6125 9.47494 30.0188 10.2249 30.2438C10.9687 30.4688 11.6937 30.4625 12.2312 30.3C12.7687 30.1438 13.0749 29.8625 13.1749 29.5313C13.2749 29.1938 13.1749 28.7938 12.8124 28.3625C12.4562 27.9375 11.8499 27.5313 11.0999 27.3063C10.6749 27.1813 10.2624 27.125 9.88744 27.1313Z" fill="url(#paint0_linear_616_26083)"/>
</g>
<defs>
<linearGradient id="paint0_linear_616_26083" x1="3.88489" y1="13.5646" x2="48.6511" y2="10.1796" gradientUnits="userSpaceOnUse">
<stop offset="0.0025491" stop-color="#57E9A9"/>
<stop offset="1" stop-color="#40A8D0"/>
</linearGradient>
</defs>
</svg>
