<svg width="110" height="29" viewBox="0 0 110 29" fill="none" xmlns="http://www.w3.org/2000/svg">
<g clip-path="url(#clip0_1097_29675)">
<path d="M7.04541 24.2308L12.0682 16.7048L18.5941 28.5759C18.4483 28.5759 18.3538 28.5923 18.2594 28.5923C16.362 28.5923 14.4646 28.5923 12.5651 28.5923C12.471 28.6013 12.3765 28.5797 12.2956 28.5309C12.2146 28.4821 12.1515 28.4087 12.1154 28.3213C11.4501 27.118 10.7724 25.9187 10.103 24.7175C9.46644 23.5757 8.36168 23.3334 7.29799 24.1014C7.22817 24.1507 7.1604 24.2041 7.09264 24.2554L7.04541 24.2308Z" fill="white"/>
<path d="M3.99601 2.59755C3.99601 2.01642 4.37384 1.60367 5.08434 1.40243C5.51352 1.28128 6.11108 1.54412 6.37392 2.01847C6.53319 2.31277 6.67579 2.61579 6.80104 2.9261C6.96737 3.31421 7.1337 3.70231 7.27539 4.09863C7.29369 4.22157 7.28951 4.34681 7.26307 4.46826C7.15922 4.46838 7.05552 4.46014 6.953 4.44361C6.28562 4.26907 5.61414 4.09863 4.95087 3.90766C4.66328 3.83604 4.41004 3.66555 4.23547 3.42604C4.06091 3.18653 3.97614 2.89326 3.99601 2.59755Z" fill="white"/>
<path d="M8.61218 -0.000104679C8.83575 -0.000342004 9.05551 0.0577308 9.24977 0.16838C9.44403 0.27903 9.60608 0.438431 9.71991 0.630846C9.83374 0.82326 9.89542 1.04204 9.89887 1.26557C9.90231 1.48911 9.84739 1.70968 9.73954 1.90551C9.41304 2.55235 9.02698 3.16839 8.65325 3.79059C8.50335 4.04111 8.35755 4.02879 8.24256 3.75568C7.95302 3.04518 7.64706 2.33879 7.40885 1.60981C7.34844 1.4225 7.33377 1.22345 7.36608 1.02931C7.3984 0.83517 7.47675 0.651596 7.59457 0.493955C7.7124 0.336315 7.86628 0.209195 8.04333 0.123237C8.22037 0.0372789 8.41544 -0.0050151 8.61218 -0.000104679Z" fill="white"/>
<path d="M16.4894 7.41711C16.4751 7.26824 16.4751 7.11833 16.4894 6.96946C16.6557 6.29798 16.7994 5.61828 17.013 4.96117C17.3292 3.99194 18.4504 3.68597 19.1466 4.34513C19.277 4.4689 19.3795 4.61901 19.4474 4.78547C19.5154 4.95194 19.5471 5.13095 19.5405 5.31062C19.5339 5.49029 19.4891 5.66649 19.4091 5.82752C19.3292 5.98855 19.2159 6.13072 19.0767 6.24459C18.3293 6.80313 17.4032 7.00642 16.4894 7.41711Z" fill="white"/>
<path d="M16.9369 18.2983C16.936 18.5656 16.8481 18.8253 16.6866 19.0383C16.5251 19.2513 16.2987 19.406 16.0416 19.479C15.4975 19.6433 14.8568 19.4606 14.5939 18.9534C14.2223 18.2367 13.9286 17.4769 13.6165 16.7274C13.5261 16.5097 13.6514 16.4173 13.865 16.4728C14.6186 16.6781 15.3763 16.8465 16.1238 17.0888C16.3675 17.1819 16.5765 17.3482 16.722 17.5647C16.8676 17.7812 16.9427 18.0375 16.9369 18.2983Z" fill="white"/>
<path d="M0.0143522 19.7644C0.0287265 18.828 0.991801 18.2633 1.90559 18.7048C2.56476 19.0251 3.18285 19.4317 3.81532 19.8075C4.02066 19.9348 4.02066 20.0827 3.78657 20.1771C3.07812 20.4687 2.37789 20.7932 1.65096 21.0273C0.794669 21.3127 -2.20351e-05 20.6741 0.0143522 19.7644Z" fill="white"/>
<path d="M0.0143217 15.676C0.0143217 14.7232 0.987664 14.1524 1.91583 14.6021C2.56678 14.9183 3.17666 15.3146 3.7968 15.6904C4.03911 15.8383 4.02884 15.9676 3.77627 16.0744C3.09863 16.3619 2.42714 16.6617 1.7228 16.8958C1.52867 16.9708 1.31896 16.9963 1.1125 16.9702C0.90604 16.9441 0.709295 16.8671 0.539927 16.7462C0.370559 16.6253 0.23387 16.4642 0.142131 16.2774C0.0503916 16.0906 0.00647439 15.884 0.0143217 15.676Z" fill="white"/>
<path d="M0.0143508 23.5224C0.028725 22.584 0.98564 22.0213 1.90148 22.4608C2.5627 22.777 3.18079 23.1856 3.81121 23.5614C4.01655 23.6826 4.03298 23.8325 3.79067 23.9331C3.08017 24.2247 2.37994 24.5491 1.65302 24.7853C0.800828 25.0687 -2.34833e-05 24.4362 0.0143508 23.5224Z" fill="white"/>
<path d="M16.5119 13.6514C16.6694 13.6628 16.8254 13.6889 16.978 13.7294C17.5715 13.9635 18.1649 14.1976 18.7461 14.4584C19.0007 14.5824 19.2125 14.7795 19.3545 15.0246C19.4964 15.2697 19.562 15.5516 19.5428 15.8342C19.5014 16.0863 19.3875 16.321 19.2151 16.5095C19.0426 16.698 18.819 16.8322 18.5715 16.8958C18.2798 16.9777 17.968 16.9474 17.6974 16.811C17.4269 16.6746 17.2171 16.4419 17.1094 16.1586C16.8655 15.421 16.6598 14.6711 16.4934 13.9122C16.4888 13.8248 16.495 13.7372 16.5119 13.6514Z" fill="white"/>
<path d="M16.9247 2.63249C16.9267 2.91591 16.8372 3.19242 16.6697 3.42101C16.5021 3.6496 16.2653 3.8181 15.9945 3.90153C15.3004 4.10688 14.592 4.265 13.8917 4.44981C13.6248 4.51963 13.5488 4.37794 13.6309 4.17875C13.9431 3.42102 14.247 2.65097 14.6228 1.91994C14.8877 1.43738 15.5489 1.29158 16.1238 1.48666C16.36 1.57047 16.5642 1.72594 16.7077 1.93135C16.8513 2.13677 16.9271 2.38189 16.9247 2.63249Z" fill="white"/>
<path d="M1.40252 11.0435C1.61398 11.092 1.82028 11.1607 2.01856 11.2488C2.59764 11.563 3.16234 11.9059 3.72704 12.2468C3.81768 12.3213 3.8972 12.4085 3.96319 12.5055C3.89074 12.5791 3.80933 12.6432 3.72088 12.6965C3.05145 12.9737 2.38613 13.2571 1.70849 13.5179C1.48605 13.6115 1.24009 13.6339 1.0044 13.582C0.76871 13.5302 0.554856 13.4066 0.392216 13.2283C0.214628 13.0556 0.0908512 12.8351 0.0358292 12.5935C-0.0191928 12.3519 -0.00310778 12.0995 0.0821424 11.8669C0.232045 11.3802 0.72693 11.0496 1.40252 11.0435Z" fill="white"/>
<path d="M20.9453 12.3453C20.9453 13.1113 20.1034 13.7828 19.3662 13.5466C18.629 13.3105 17.8651 12.9634 17.1259 12.6595C16.9021 12.5692 16.9206 12.4234 17.1074 12.3084C17.7481 11.9264 18.3765 11.5116 19.0479 11.1913C19.9864 10.7436 20.9453 11.3494 20.9453 12.3453Z" fill="white"/>
<path d="M1.33887 28.5964C1.09432 28.6161 0.849659 28.5598 0.638318 28.4352C0.426978 28.3106 0.259272 28.1238 0.158123 27.9003C0.0384474 27.6914 -0.0159269 27.4514 0.00200656 27.2113C0.0199401 26.9712 0.10936 26.742 0.258743 26.5532C0.396365 26.3548 0.59326 26.205 0.821223 26.1253C1.04918 26.0457 1.29652 26.0402 1.52778 26.1097C1.9426 26.2576 2.3427 26.4439 2.7229 26.6662C3.09458 26.8715 3.45188 27.0769 3.80918 27.3109C4.01453 27.4342 4.03917 27.58 3.7907 27.6826C3.07199 27.9824 2.35054 28.2727 1.62635 28.5533C1.53282 28.5802 1.43617 28.5947 1.33887 28.5964Z" fill="white"/>
<path d="M11.0127 1.28545C11.0157 0.962825 11.1393 0.653007 11.3593 0.41696C11.5792 0.180913 11.8796 0.0357312 12.2012 0.00998176C12.5228 -0.0157676 12.8424 0.0797804 13.0971 0.277824C13.3518 0.475868 13.5232 0.762067 13.5775 1.0801C13.5987 1.2707 13.574 1.46361 13.5056 1.64275C13.2469 2.3512 12.9676 3.05554 12.6842 3.75782C12.5754 4.02683 12.4337 4.03504 12.2735 3.78041C11.908 3.16437 11.5445 2.54833 11.2037 1.93229C11.119 1.72345 11.055 1.5068 11.0127 1.28545Z" fill="white"/>
<path d="M20.929 8.6122C20.9307 8.81023 20.8861 9.00591 20.7988 9.18366C20.7115 9.36141 20.5839 9.51629 20.4261 9.63597C20.2683 9.75565 20.0848 9.83681 19.8901 9.87297C19.6954 9.90914 19.4949 9.89932 19.3047 9.84428C19.0395 9.75145 18.7849 9.63101 18.5449 9.48493C18.074 9.21935 17.6092 8.94555 17.1506 8.66354C16.9062 8.51158 16.9042 8.37811 17.1506 8.27954C17.859 7.9859 18.5634 7.67788 19.2862 7.42735C19.4739 7.36537 19.6736 7.34875 19.8689 7.37885C20.0642 7.40896 20.2497 7.48493 20.41 7.60055C20.5703 7.71616 20.7009 7.86813 20.7911 8.04398C20.8813 8.21983 20.9286 8.41456 20.929 8.6122Z" fill="white"/>
<path d="M4.43749 7.40671C3.53602 7.02066 2.61812 6.7763 1.84807 6.23624C1.40247 5.92206 1.29979 5.2629 1.50103 4.79881C1.59308 4.55987 1.75626 4.35494 1.96853 4.21171C2.18079 4.06849 2.4319 3.99388 2.68794 3.99796C2.95989 4.00766 3.22189 4.10274 3.43677 4.2697C3.65165 4.43667 3.80851 4.66706 3.88511 4.92818C4.09045 5.61199 4.25884 6.304 4.43338 6.99397C4.44966 7.131 4.45104 7.26939 4.43749 7.40671Z" fill="white"/>
<path d="M1.28957 7.35962C1.54305 7.40452 1.79339 7.46557 2.03909 7.54238C2.59558 7.74772 3.14385 7.97977 3.68186 8.22002C4.00015 8.35966 4.01247 8.51367 3.72088 8.68821C3.11921 9.04962 2.51755 9.41514 1.89945 9.7478C1.66977 9.87688 1.40504 9.92972 1.1434 9.89872C0.881761 9.86772 0.636712 9.75448 0.443547 9.57531C0.0184794 9.22211 -0.0677661 8.74365 0.0759764 8.21386C0.219719 7.68407 0.689962 7.37194 1.28957 7.35962Z" fill="white"/>
<path d="M4.92837 11.7047C4.72165 11.6582 4.5206 11.5893 4.32876 11.4993C3.91807 11.2447 3.52175 10.9613 3.12338 10.6779C2.93446 10.5465 2.93446 10.3843 3.12338 10.2672C3.5505 9.97153 3.97351 9.66967 4.42528 9.41504C4.63628 9.30041 4.87857 9.25669 5.11634 9.29034C5.3541 9.32399 5.57474 9.43323 5.74565 9.60191C5.92368 9.77004 6.04648 9.98825 6.09781 10.2277C6.14914 10.4671 6.12659 10.7165 6.03314 10.9428C5.94233 11.163 5.78965 11.3521 5.59358 11.4873C5.39751 11.6226 5.16645 11.698 4.92837 11.7047Z" fill="white"/>
<path d="M15.8117 5.54425C15.707 6.02887 15.631 6.52376 15.4852 6.994C15.3934 7.25176 15.2134 7.46877 14.977 7.60667C14.7407 7.74457 14.4632 7.79449 14.1936 7.74762C13.933 7.69358 13.6957 7.55976 13.5147 7.36473C13.3337 7.1697 13.2178 6.92314 13.1833 6.65929C13.1621 6.39155 13.2317 6.12448 13.3806 5.90102C13.5296 5.67756 13.7494 5.51068 14.0047 5.42721C14.4926 5.30293 14.9868 5.2049 15.4852 5.13356C15.824 5.08017 15.7706 5.33891 15.8117 5.54425Z" fill="white"/>
<path d="M5.12138 19.3189C4.90534 19.2618 4.69553 19.1834 4.49507 19.0848C4.08438 18.8383 3.70654 18.557 3.31638 18.286C3.13362 18.1566 3.11103 17.9903 3.302 17.8629C3.73991 17.549 4.19364 17.2577 4.6614 16.9902C4.87224 16.8826 5.11228 16.8463 5.34553 16.8866C5.57877 16.927 5.79265 17.0419 5.95508 17.2141C6.12687 17.3877 6.24318 17.6084 6.28925 17.8483C6.33532 18.0881 6.30906 18.3362 6.21382 18.5611C6.11846 18.7753 5.96618 18.9592 5.77356 19.0928C5.58094 19.2264 5.35536 19.3046 5.12138 19.3189Z" fill="white"/>
<path d="M6.31028 14.0393C6.31546 14.2362 6.27037 14.4311 6.17927 14.6056C6.08817 14.7802 5.95407 14.9286 5.78964 15.037C5.62521 15.1453 5.43588 15.2099 5.23953 15.2247C5.04319 15.2395 4.84631 15.204 4.66751 15.1215C4.18519 14.8541 3.72327 14.5514 3.28552 14.2159C3.24786 14.2004 3.21565 14.1741 3.19298 14.1403C3.17031 14.1065 3.1582 14.0667 3.1582 14.026C3.1582 13.9853 3.17031 13.9455 3.19298 13.9116C3.21565 13.8778 3.24786 13.8515 3.28552 13.836C3.73392 13.497 4.20993 13.1961 4.70858 12.9366C5.4622 12.5793 6.30822 13.1974 6.31028 14.0393Z" fill="white"/>
<path d="M5.10907 26.8674C4.91012 26.8214 4.71717 26.7525 4.5341 26.662C4.12341 26.4074 3.72298 26.122 3.32255 25.8407C3.1439 25.7154 3.11721 25.5491 3.30202 25.4176C3.74086 25.1021 4.19525 24.8088 4.66347 24.5388C4.8756 24.4322 5.11684 24.3982 5.35018 24.4419C5.58351 24.4857 5.79602 24.6048 5.9551 24.7811C6.12499 24.9507 6.24068 25.1669 6.28747 25.4023C6.33427 25.6378 6.31007 25.8818 6.21794 26.1035C6.12565 26.3236 5.9721 26.5127 5.77553 26.6481C5.57896 26.7835 5.34764 26.8596 5.10907 26.8674Z" fill="white"/>
<path d="M6.49107 7.7539C6.08037 7.71488 5.64093 7.54855 5.49308 7.05983C5.34565 6.49817 5.23521 5.92745 5.16248 5.35134C5.16248 5.29179 5.32265 5.146 5.39041 5.146C5.95689 5.22835 6.51836 5.34215 7.0722 5.48687C7.54039 5.61829 7.8443 6.26308 7.74368 6.76207C7.67809 7.04483 7.51845 7.29694 7.29089 7.47712C7.06332 7.65731 6.78133 7.75489 6.49107 7.7539Z" fill="white"/>
<path d="M5.09265 23.044C4.8802 22.9835 4.67393 22.903 4.47661 22.8037C4.09056 22.5676 3.72299 22.2965 3.35131 22.0378C3.14596 21.8899 3.12338 21.7257 3.35131 21.5758C3.762 21.2944 4.1727 21.0008 4.59776 20.7544C4.80711 20.635 5.04928 20.5862 5.28852 20.615C5.52776 20.6439 5.75138 20.7489 5.92636 20.9145C6.10589 21.0812 6.23166 21.2976 6.28763 21.5361C6.34359 21.7745 6.32719 22.0243 6.24054 22.2534C6.14834 22.4836 5.99022 22.6814 5.786 22.8221C5.58179 22.9627 5.34058 23.0399 5.09265 23.044Z" fill="white"/>
<path d="M14.3989 13.1913C14.6555 13.1842 14.9066 13.266 15.1098 13.4227C15.313 13.5795 15.4558 13.8018 15.5139 14.0518C15.633 14.522 15.7193 15.0005 15.8137 15.4789C15.8507 15.6843 15.7891 15.8588 15.516 15.8075C15.0272 15.713 14.5344 15.635 14.0539 15.5138C13.7788 15.4423 13.539 15.2735 13.3789 15.0386C13.2187 14.8037 13.1492 14.5188 13.1832 14.2366C13.2216 13.9432 13.3669 13.6744 13.5912 13.4815C13.8155 13.2886 14.1031 13.1853 14.3989 13.1913Z" fill="white"/>
<path d="M10.5055 6.11514C9.55069 6.10487 8.98393 5.20134 9.43569 4.36353C9.686 3.93303 9.96022 3.5169 10.2571 3.11708C10.3844 2.93021 10.5466 2.92405 10.6678 3.11708C10.9742 3.53727 11.2573 3.97394 11.5159 4.42513C11.6052 4.60043 11.6487 4.79555 11.6421 4.99221C11.6354 5.18887 11.579 5.38063 11.478 5.54952C11.3771 5.71841 11.2349 5.85891 11.0648 5.95783C10.8947 6.05676 10.7023 6.11089 10.5055 6.11514Z" fill="white"/>
<path d="M16.0704 9.25293C16.2822 9.31965 16.4882 9.40343 16.6864 9.50345C17.056 9.72523 17.4113 9.9737 17.7686 10.2201C18.0068 10.3844 18.013 10.5261 17.7686 10.6965C17.401 10.9635 17.0273 11.2243 16.6433 11.4666C16.4303 11.6094 16.1763 11.6783 15.9203 11.6627C15.6643 11.6472 15.4205 11.5479 15.2264 11.3803C15.041 11.2222 14.9082 11.0113 14.8458 10.7757C14.7834 10.5401 14.7944 10.2912 14.8773 10.062C15.0498 9.57122 15.4584 9.30837 16.0704 9.25293Z" fill="white"/>
<path d="M26.923 13.7068C23.0337 13.7068 20.5223 15.7212 20.5223 18.8404V18.9739H23.7237V18.8404C23.7237 17.4338 24.7997 16.6597 26.7546 16.6597C28.5781 16.6597 29.5001 17.5078 29.5001 19.1793V19.3661L25.4445 19.668C22.0809 19.9185 20.1527 21.588 20.1527 24.2308C20.1527 26.9516 22.0789 28.7115 25.0605 28.7115C27.0975 28.7115 28.8697 27.8901 29.6397 26.6005L29.8451 28.3439H33.1183V19.7399C33.1286 15.904 30.8656 13.7068 26.923 13.7068ZM26.1878 25.8469C24.6847 25.8469 23.929 25.2555 23.929 24.0891C23.929 23.3868 24.2227 22.4237 26.771 22.1896L29.535 21.9843V22.5736C29.5288 24.621 28.2803 25.8469 26.1878 25.8469Z" fill="white"/>
<path d="M46.7286 15.6227C45.7799 14.4153 44.1639 13.7069 42.3157 13.7069C38.2088 13.7069 35.4346 16.7542 35.4346 21.2924C35.4346 25.8305 38.0568 28.7115 42.1186 28.7115C44.1536 28.7115 45.8723 27.8758 46.8005 26.4527L47.0058 28.3419H50.4125V7.07007H46.7286V15.6227ZM42.8804 25.274C40.6216 25.274 39.1452 23.6641 39.1452 21.1671C39.1452 18.6701 40.6114 17.0437 42.8804 17.0437C45.1495 17.0437 46.6999 18.705 46.6999 21.1753C46.6999 23.6456 45.1639 25.2822 42.8804 25.2822V25.274Z" fill="white"/>
<path d="M60.7292 13.7581C56.2116 13.7581 52.8029 17.4338 52.8029 22.3066C52.8029 26.237 55.2773 28.6724 59.261 28.6724C62.487 28.6724 65.3064 26.6969 66.2777 23.7441L66.3352 23.5675H62.7889L62.7539 23.6475C62.1831 24.9248 60.9715 25.6579 59.4314 25.6579C57.4006 25.6579 56.2773 24.4094 56.2609 22.1403L66.3763 22.1116H66.4912L66.6781 20.9555C67.0108 18.8055 66.5919 16.9779 65.4666 15.6657C64.3885 14.4275 62.7498 13.7581 60.7292 13.7581ZM60.5239 16.7356C61.4993 16.7356 62.2734 17.0374 62.7642 17.6124C63.2201 18.1443 63.4008 18.8794 63.2878 19.7439H56.6757C57.3595 17.9143 58.8544 16.7397 60.5321 16.7397L60.5239 16.7356Z" fill="white"/>
<path d="M75.6989 13.7334C72.0027 13.7334 69.5899 15.5815 69.0991 18.8178L69.0765 18.9697H72.3128L72.3292 18.8568C72.5345 17.3578 73.5613 16.598 75.3601 16.598C76.3273 16.598 77.0255 16.8423 77.4341 17.3208C77.8017 17.7541 77.9249 18.3701 77.7976 19.1689L77.7791 19.3743L73.7399 19.7131C69.9841 20.0006 67.828 21.8384 67.828 24.7585C67.828 27.1179 69.5735 28.7032 72.169 28.7032C74.1157 28.7032 75.8653 27.8961 76.7873 26.6148L76.7175 28.3376H79.8798L81.2536 19.7275C81.5267 17.9984 81.194 16.5261 80.2925 15.4727C79.3151 14.3371 77.7278 13.7334 75.6989 13.7334ZM77.4156 21.9206L77.3253 22.5161C77.0234 24.6065 75.5367 25.9043 73.4483 25.9043C72.206 25.9043 71.4647 25.3416 71.4647 24.3991C71.4647 23.052 72.5037 22.3189 74.6455 22.1608L77.4156 21.9206Z" fill="white"/>
<path d="M89.5927 13.7581C86.1326 13.7581 83.8984 15.5507 83.8984 18.325C83.8984 20.1567 84.9642 21.4236 87.0669 22.0931L89.4387 22.8837C90.4038 23.206 90.7303 23.5592 90.7303 24.2821C90.7303 25.2328 89.7754 25.8714 88.3524 25.8714C86.9293 25.8714 86.0792 25.1815 86.0279 24.0233V23.8981H82.5698V24.0254C82.5698 26.7893 84.8019 28.6477 88.1265 28.6477C91.8659 28.6477 94.1883 26.8325 94.1883 23.9104C94.1883 22.1547 93.2273 21.0109 91.1595 20.3107L88.8165 19.5488C87.8 19.2018 87.3277 18.7049 87.3277 17.982C87.3277 17.0436 88.0608 16.5056 89.338 16.5056C90.6153 16.5056 91.2991 17.1606 91.3237 18.3537V18.4831H94.7777V18.3578C94.7818 15.6062 92.6955 13.7581 89.5927 13.7581Z" fill="white"/>
<path d="M108.678 15.6863C107.602 14.4275 105.959 13.7581 103.94 13.7581C99.4227 13.7581 96.0139 17.4338 96.0139 22.3066C96.0139 26.237 98.4883 28.6724 102.472 28.6724C105.698 28.6724 108.517 26.6969 109.489 23.7441L109.546 23.5675H106L105.965 23.6475C105.394 24.9248 104.183 25.6579 102.64 25.6579C100.612 25.6579 99.4884 24.4094 99.472 22.1403L109.587 22.1116H109.702L109.889 20.9555C110.222 18.826 109.803 16.9984 108.678 15.6863ZM103.749 16.7397C104.725 16.7397 105.499 17.0415 105.99 17.6165C106.446 18.1484 106.626 18.8835 106.513 19.748H99.8929C100.571 17.9143 102.057 16.7397 103.743 16.7397H103.749Z" fill="white"/>
</g>
<defs>
<clipPath id="clip0_1097_29675">
<rect width="110" height="28.7115" fill="white"/>
</clipPath>
</defs>
</svg>
